<?xml version="1.0" standalone="no"?>
<!DOCTYPE svg PUBLIC "-//W3C//DTD SVG 1.1//EN" "http://www.w3.org/Graphics/SVG/1.1/DTD/svg11.dtd" >
<svg xmlns="http://www.w3.org/2000/svg">
<metadata>
This is a custom SVG webfont generated by Font Squirrel.
</metadata>
<defs>
<font id="WebfontBold" horiz-adv-x="1138" >
<font-face units-per-em="2048" ascent="1638" descent="-410" />
<missing-glyph horiz-adv-x="569" />
<glyph unicode=" "  horiz-adv-x="569" />
<glyph unicode="&#x09;" horiz-adv-x="569" />
<glyph unicode="&#xa0;" horiz-adv-x="569" />
<glyph unicode="!" horiz-adv-x="569" d="M124 0v315h322v-315h-322zM132 1069v393h303v-393l-80 -631h-145z" />
<glyph unicode="&#x22;" horiz-adv-x="948" d="M174 805v657h219v-657h-219zM555 805v657h219v-657h-219z" />
<glyph unicode="#" d="M67 406v184h195l36 254h-170v184h195l57 406h199l-57 -406h198l56 406h198l-55 -406h152v-184h-179l-34 -254h151v-184h-178l-55 -406h-199l55 406h-196l-58 -406h-198l57 406h-170zM460 590h199l35 254h-197z" />
<glyph unicode="$" d="M-2 475h291q-2 -227 219 -270v428q-16 8 -66 18q-190 49 -280 121q-129 102 -129 287q0 198 145 317q129 107 330 121v158h121v-158q438 -47 461 -436h-291q-2 82 -51 139q-50 57 -119 57v-362l104 -27q262 -71 355 -227q53 -90 53 -248q0 -129 -103 -248 q-141 -161 -409 -180v-174h-121v174q-465 35 -510 510zM324 1087q0 -120 184 -163v333q-76 0 -127 -40q-57 -48 -57 -130zM629 205q88 8 147 55q74 55 74 146q0 77 -49 120q-47 39 -172 72v-393z" />
<glyph unicode="%" horiz-adv-x="2048" d="M153 1057q0 178 84 286q92 119 264 119q336 0 336 -413q0 -177 -84 -277q-90 -108 -262 -108q-338 0 -338 393zM362 1053q0 -103 16 -152q29 -84 115 -84q135 0 135 234q0 258 -127 258q-139 0 -139 -256zM520 -45l847 1524h175l-844 -1524h-178zM1210 375q0 176 84 280 q92 115 264 115q336 0 336 -403q0 -177 -84 -281q-90 -115 -262 -115q-338 0 -338 404zM1419 373q0 -248 131 -248q135 0 135 246q0 245 -127 245q-139 0 -139 -243z" />
<glyph unicode="&#x26;" horiz-adv-x="1402" d="M65 410q0 272 328 424q-140 167 -140 311q0 147 117 244q111 90 264 90q174 0 285 -88q117 -97 117 -263q0 -223 -260 -364l188 -232q39 70 53 175h252q-22 -209 -141 -361l297 -346h-356l-119 145q-178 -174 -412 -174q-205 0 -336 115q-137 121 -137 324zM341 403 q0 -77 64 -135q63 -57 145 -57q131 0 246 129l-250 305q-205 -84 -205 -242zM518 1155q0 -80 114 -219q150 94 150 209q0 57 -39 98q-41 41 -94 41q-56 0 -92 -37q-39 -37 -39 -92z" />
<glyph unicode="'" horiz-adv-x="569" d="M176 805v657h219v-657h-219z" />
<glyph unicode="(" horiz-adv-x="606" d="M106 549q0 555 270 948h244q-223 -420 -223 -928q0 -514 221 -942h-242q-270 447 -270 922z" />
<glyph unicode=")" horiz-adv-x="606" d="M-14 -373q223 420 223 926q0 516 -221 944h242q270 -446 270 -924q0 -561 -270 -946h-244z" />
<glyph unicode="*" horiz-adv-x="833" d="M45 1139l55 157l232 -90v256h164v-256l237 90l55 -157l-241 -80l151 -201l-135 -100l-151 211l-144 -211l-137 100l152 201z" />
<glyph unicode="+" horiz-adv-x="1228" d="M98 408v219h408v407h219v-407h407v-219h-407v-408h-219v408h-408z" />
<glyph unicode="," horiz-adv-x="569" d="M124 0v315h322v-315q0 -135 -95 -231q-88 -88 -225 -109v147q64 13 107 68q43 57 38 125h-147z" />
<glyph unicode="-" horiz-adv-x="833" d="M108 434v250h616v-250h-616z" />
<glyph unicode="." horiz-adv-x="569" d="M122 0v315h322v-315h-322z" />
<glyph unicode="/" horiz-adv-x="759" d="M-22 -35l571 1532h234l-572 -1532h-233z" />
<glyph unicode="0" d="M43 723q0 739 524 739q529 0 529 -739q0 -752 -529 -752q-524 0 -524 752zM334 723q0 -209 28 -317q54 -195 205 -195q238 0 238 512q0 500 -238 500q-233 0 -233 -500z" />
<glyph unicode="1" d="M151 930v219q375 -12 420 285h231v-1434h-291v930h-360z" />
<glyph unicode="2" d="M43 0q0 223 133 383q80 94 320 258q184 129 196 141q105 97 105 209q0 103 -62 162q-57 59 -153 59q-119 0 -179 -108q-49 -88 -49 -221h-278q-8 254 127 413q141 166 393 166q205 0 344 -119q147 -126 147 -329q0 -254 -256 -434q-360 -254 -413 -330h678v-250h-1053z " />
<glyph unicode="3" d="M40 494h277q6 -125 65 -199q68 -84 186 -84q101 0 166 61q68 64 68 164q0 144 -113 189q-63 24 -219 24v205q119 -10 201 25q104 43 104 153q0 88 -61 142q-57 49 -141 49q-107 0 -166 -72q-58 -70 -56 -184h-276q8 223 141 358q135 137 355 137q186 0 327 -102 q154 -115 154 -295q0 -234 -201 -293v-4q119 -27 186 -115q68 -88 68 -211q0 -217 -162 -348q-149 -123 -370 -123q-244 0 -390 138q-147 141 -143 385z" />
<glyph unicode="4" d="M32 332v266l623 836h260v-863h190v-239h-190v-332h-277v332h-606zM261 571h377v498h-6z" />
<glyph unicode="5" d="M36 426h291q10 -96 76 -156q63 -59 159 -59q111 0 181 84q67 80 67 192q0 115 -65 191q-68 78 -183 78q-137 0 -219 -115h-262l141 793h801v-240h-592l-57 -326l4 -4q111 111 281 111q204 0 327 -144q115 -135 115 -344q0 -219 -158 -370q-157 -150 -375 -146 q-221 0 -368 115q-160 125 -164 340z" />
<glyph unicode="6" d="M43 713q0 301 129 508q152 241 434 241q189 0 314 -102q127 -107 151 -295h-276q-15 76 -66 125q-53 53 -127 53q-139 0 -213 -160q-55 -116 -61 -276l4 -4q110 160 323 160q197 0 330 -148q111 -129 111 -319q0 -224 -140 -373q-141 -152 -362 -152q-299 0 -438 236 q-113 188 -113 506zM354 477q0 -106 62 -182q65 -84 170 -84q100 0 162 82q57 76 57 180q0 111 -53 186q-60 84 -166 84q-111 0 -174 -79q-58 -74 -58 -187z" />
<glyph unicode="7" d="M79 1163v271h979v-250q-213 -187 -344 -547q-121 -326 -125 -637h-311q49 641 481 1163h-680z" />
<glyph unicode="8" d="M28 420q0 287 270 352v4q-211 60 -211 295q0 182 154 293q139 98 330 98q239 0 372 -139q107 -113 107 -246q0 -229 -209 -301v-4q268 -61 268 -350q0 -215 -168 -338q-149 -113 -368 -113q-226 0 -377 109q-168 121 -168 340zM319 434q0 -108 76 -176q71 -68 178 -68 q106 0 176 68t70 174q0 100 -72 166q-70 64 -174 64q-111 0 -180 -58q-74 -63 -74 -170zM352 1044q0 -88 65 -139q62 -49 154 -49q94 0 153 49q62 49 62 139q0 199 -215 199q-92 0 -154 -51q-65 -55 -65 -148z" />
<glyph unicode="9" d="M43 938q0 223 137 373q144 151 365 151q299 0 438 -235q113 -189 113 -506q0 -301 -129 -506q-152 -244 -435 -244q-188 0 -313 105q-127 104 -151 293h276q14 -76 66 -125q53 -54 127 -54q245 0 274 437l-4 4q-111 -160 -324 -160q-196 0 -329 147q-111 130 -111 320z M334 961q0 -111 53 -187q62 -84 166 -84q111 0 174 80q57 74 57 186q0 107 -59 183q-68 84 -172 84q-100 0 -162 -82q-57 -76 -57 -180z" />
<glyph unicode=":" horiz-adv-x="569" d="M124 0v315h322v-315h-322zM124 725v315h322v-315h-322z" />
<glyph unicode=";" horiz-adv-x="569" d="M124 0v315h322v-315q0 -135 -95 -231q-88 -88 -225 -109v147q64 13 107 68q43 57 38 125h-147zM124 725v315h322v-315h-322z" />
<glyph unicode="&#x3c;" horiz-adv-x="1228" d="M94 397v242l1040 414v-236l-751 -299l751 -299v-235z" />
<glyph unicode="=" horiz-adv-x="1228" d="M98 188v220h1034v-220h-1034zM98 627v219h1034v-219h-1034z" />
<glyph unicode="&#x3e;" horiz-adv-x="1228" d="M94 -16v235l752 299l-752 299v236l1040 -414v-242z" />
<glyph unicode="?" d="M65 991q4 223 139 363q135 143 359 143q260 0 399 -139q111 -111 111 -256q0 -217 -174 -346q-113 -84 -125 -99q-62 -61 -74 -141v-78h-277v92q17 191 177 322q88 70 106 92q47 55 45 129q0 184 -174 184q-104 0 -160 -77q-51 -72 -51 -189h-301zM395 0v315h321v-315 h-321z" />
<glyph unicode="@" horiz-adv-x="1638" d="M73 731q0 322 229 545q228 221 549 221q289 0 496 -170q217 -180 217 -455q0 -278 -191 -454q-151 -139 -290 -139q-140 0 -150 116h-4q-72 -119 -221 -119q-131 0 -225 105q-97 102 -97 246q0 204 123 358q129 164 324 164q176 0 239 -143l33 110h168l-129 -528 q-16 -53 -16 -88q0 -47 35 -47q92 0 163 106q78 111 78 270q0 238 -160 375q-153 129 -395 129q-260 0 -422 -174q-157 -168 -157 -432q0 -266 170 -434q168 -164 434 -164q272 0 440 168h172q-217 -332 -625 -332q-329 0 -557 219q-231 222 -231 547zM595 653 q0 -82 43 -131q45 -51 117 -51q104 0 182 102q70 95 70 207q0 74 -45 125q-47 49 -113 49q-106 0 -182 -98q-72 -92 -72 -203z" />
<glyph unicode="A" horiz-adv-x="1402" d="M-14 0l555 1462h330l547 -1462h-334l-111 326h-547l-114 -326h-326zM510 565h379l-184 537h-4z" />
<glyph unicode="B" horiz-adv-x="1441" d="M141 0v1462h688q467 0 467 -362q0 -207 -199 -305q269 -76 269 -371q0 -209 -160 -324q-139 -100 -356 -100h-709zM463 250h344q237 0 237 192q0 209 -231 209h-350v-401zM463 870h325q197 0 197 174q0 168 -221 168h-301v-342z" />
<glyph unicode="C" horiz-adv-x="1517" d="M77 725q0 334 190 549q199 223 529 223q248 0 420 -137q182 -143 211 -389h-312q-16 108 -108 182t-211 74q-203 0 -307 -156q-90 -133 -90 -346q0 -205 90 -336q106 -153 307 -153q291 0 332 327h311q-25 -274 -199 -436t-444 -162q-330 0 -529 221q-190 213 -190 539z " />
<glyph unicode="D" horiz-adv-x="1517" d="M141 0v1462h631q297 0 473 -180q190 -192 190 -543q0 -331 -164 -528q-176 -211 -499 -211h-631zM463 270h286q156 0 252 99q113 114 113 340q0 483 -422 483h-229v-922z" />
<glyph unicode="E" horiz-adv-x="1327" d="M141 0v1462h1094v-270h-772v-313h708v-250h-708v-359h788v-270h-1110z" />
<glyph unicode="F" horiz-adv-x="1214" d="M141 0v1462h1028v-270h-706v-338h612v-250h-612v-604h-322z" />
<glyph unicode="G" horiz-adv-x="1554" d="M77 725q0 334 190 549q199 223 529 223q237 0 407 -133q185 -143 209 -383h-307q-57 246 -309 246q-203 0 -307 -156q-90 -133 -90 -346q0 -205 90 -336q106 -153 307 -153q319 0 348 315h-324v240h615v-791h-205l-33 166q-155 -201 -401 -201q-330 0 -529 221 q-190 213 -190 539z" />
<glyph unicode="H" horiz-adv-x="1517" d="M141 0v1462h322v-561h591v561h322v-1462h-322v631h-591v-631h-322z" />
<glyph unicode="I" horiz-adv-x="604" d="M141 0v1462h322v-1462h-322z" />
<glyph unicode="J" d="M28 418v127h291v-66q0 -243 186 -243q113 0 150 79q20 47 20 160v987h322v-1001q0 -496 -488 -496q-200 0 -331 107q-150 121 -150 346z" />
<glyph unicode="K" horiz-adv-x="1478" d="M141 0v1462h322v-606l571 606h401l-571 -577l627 -885h-404l-440 657l-184 -186v-471h-322z" />
<glyph unicode="L" horiz-adv-x="1214" d="M141 0v1462h322v-1192h712v-270h-1034z" />
<glyph unicode="M" horiz-adv-x="1857" d="M141 0v1462h453l342 -1005h4l323 1005h453v-1462h-301v1036h-4l-359 -1036h-247l-359 1026h-4v-1026h-301z" />
<glyph unicode="N" horiz-adv-x="1517" d="M141 0v1462h319l611 -981h4v981h301v-1462h-322l-608 979h-4v-979h-301z" />
<glyph unicode="O" horiz-adv-x="1593" d="M77 725q0 334 190 549q199 223 529 223t528 -223q191 -215 191 -549q0 -326 -191 -539q-198 -221 -528 -221t-529 221q-190 213 -190 539zM399 725q0 -205 90 -336q106 -153 307 -153t307 153q90 131 90 336q0 213 -90 346q-104 156 -307 156t-307 -156 q-90 -133 -90 -346z" />
<glyph unicode="P" horiz-adv-x="1366" d="M141 0v1462h659q256 0 392 -145q114 -125 114 -324q0 -198 -114 -323q-136 -146 -392 -146h-337v-524h-322zM463 774h249q283 0 283 219t-283 219h-249v-438z" />
<glyph unicode="Q" horiz-adv-x="1593" d="M77 725q0 334 190 549q199 223 529 223t528 -223q191 -215 191 -549q0 -324 -191 -539l183 -166l-150 -157l-207 188q-149 -86 -354 -86q-330 0 -529 221q-190 213 -190 539zM399 725q0 -205 90 -336q106 -153 307 -153q108 0 129 20l-137 125l149 160l166 -152 q90 121 90 336q0 213 -90 346q-104 156 -307 156t-307 -156q-90 -133 -90 -346z" />
<glyph unicode="R" horiz-adv-x="1478" d="M141 0v1462h788q193 0 314 -119q115 -114 115 -284q0 -275 -232 -367v-4q193 -53 213 -342q19 -289 62 -346h-322q-4 8 -51 350q-17 119 -70 168q-55 53 -174 53h-321v-571h-322zM463 801h352q221 0 221 209q0 202 -221 202h-352v-411z" />
<glyph unicode="S" horiz-adv-x="1329" d="M53 485h311q0 -137 99 -209q84 -61 225 -61q285 0 285 182q0 103 -138 158q-2 2 -297 84q-198 49 -299 127q-137 104 -137 289q0 211 174 334q154 108 373 108q252 0 408 -108q178 -125 178 -363h-312q-12 221 -288 221q-88 0 -150 -37q-71 -45 -71 -129q0 -80 79 -118 q64 -29 357 -103q434 -98 434 -426q0 -209 -154 -336q-163 -133 -454 -133q-265 0 -434 125q-189 138 -189 385v10z" />
<glyph unicode="T" horiz-adv-x="1251" d="M26 1192v270h1198v-270h-438v-1192h-322v1192h-438z" />
<glyph unicode="U" horiz-adv-x="1517" d="M135 553v909h322v-909q0 -145 53 -219q71 -98 248 -98q168 0 237 75q66 74 66 242v909h321v-909q0 -291 -166 -442q-159 -146 -458 -146q-623 0 -623 588z" />
<glyph unicode="V" horiz-adv-x="1290" d="M-16 1462h332l325 -1028h5l329 1028h332l-485 -1462h-363z" />
<glyph unicode="W" horiz-adv-x="1933" d="M6 1462h322l231 -995h4l254 995h301l250 -1007h4l240 1007h315l-393 -1462h-320l-247 995h-5l-243 -995h-326z" />
<glyph unicode="X" horiz-adv-x="1366" d="M-12 0l512 766l-471 696h373l286 -467l297 467h353l-469 -698l510 -764h-383l-320 506l-326 -506h-362z" />
<glyph unicode="Y" horiz-adv-x="1366" d="M-18 1462h362l343 -577l339 577h359l-543 -901v-561h-321v569z" />
<glyph unicode="Z" horiz-adv-x="1327" d="M47 0v254l784 938h-723v270h1151v-254l-784 -938h805v-270h-1233z" />
<glyph unicode="[" horiz-adv-x="681" d="M139 -373v1870h541v-229h-250v-1411h250v-230h-541z" />
<glyph unicode="\" horiz-adv-x="759" d="M-22 1497h233l572 -1532h-234z" />
<glyph unicode="]" horiz-adv-x="681" d="M2 -143h250v1411h-250v229h541v-1870h-541v230z" />
<glyph unicode="^" horiz-adv-x="1228" d="M124 645l352 789h275l352 -789h-240l-250 563l-249 -563h-240z" />
<glyph unicode="_" horiz-adv-x="1024" d="M0 -154h1024v-102h-1024v102z" />
<glyph unicode="`" horiz-adv-x="530" d="M-98 1497h322l196 -291h-203z" />
<glyph unicode="a" horiz-adv-x="1175" d="M65 289q2 164 113 241q82 58 245 80l242 35q105 28 105 100v5q0 143 -189 143q-178 0 -192 -160h-291q12 187 166 279q129 75 331 75q465 0 465 -301v-550q0 -177 37 -236h-295q-18 57 -20 102q-125 -131 -357 -131q-159 0 -256 78q-104 84 -104 240zM356 301 q0 -135 178 -135q236 0 236 244v108q-25 -22 -242 -61q-172 -31 -172 -156z" />
<glyph unicode="b" horiz-adv-x="1251" d="M110 0v1462h291v-532h4q104 157 334 157q176 0 299 -133q139 -153 139 -424q0 -270 -139 -424q-123 -135 -299 -135q-258 0 -348 164h-5v-135h-276zM391 528q0 -143 59 -235q68 -103 188 -103q121 0 189 103q59 92 59 235q0 146 -59 238q-66 102 -189 102 q-122 0 -188 -102q-59 -92 -59 -238z" />
<glyph unicode="c" horiz-adv-x="1175" d="M77 514q0 254 141 410q148 163 400 163q200 0 336 -98q149 -110 161 -303h-284q-29 182 -215 182q-127 0 -195 -112q-53 -94 -53 -232q0 -135 53 -225q64 -109 188 -109q201 0 232 216h280q-28 -209 -163 -322q-133 -113 -346 -113q-238 0 -388 152q-147 151 -147 391z " />
<glyph unicode="d" horiz-adv-x="1251" d="M65 539q0 229 119 381q129 167 350 167q215 0 313 -157h4v532h291v-1462h-276v135h-4q-97 -164 -322 -164q-227 0 -356 174q-119 156 -119 394zM356 530q0 -139 61 -231q68 -109 195 -109q250 0 250 342q0 336 -250 336q-133 0 -199 -104q-57 -88 -57 -234z" />
<glyph unicode="e" horiz-adv-x="1175" d="M59 528q0 242 150 400q151 159 391 159q258 0 401 -192q115 -155 115 -374q0 -30 -2 -62h-764q12 -269 260 -269q84 0 151 46q64 38 78 92h256q-116 -357 -495 -357q-248 0 -396 156q-145 154 -145 401zM350 643h473q-41 225 -232 225q-124 0 -188 -82q-47 -59 -53 -143z " />
<glyph unicode="f" horiz-adv-x="681" d="M0 864v195h174v82q0 145 88 231q94 90 266 90q29 0 78 -4l76 -4v-217q-51 6 -107 6q-110 0 -110 -121v-63h201v-195h-201v-864h-291v864h-174z" />
<glyph unicode="g" horiz-adv-x="1251" d="M77 563q0 217 117 365q127 159 338 159q217 0 315 -169h4v141h277v-991q0 -469 -549 -469q-176 0 -305 79q-150 95 -162 261h289q34 -146 217 -146q233 0 233 253v9v140h-4q-92 -164 -317 -164q-228 0 -347 157q-106 140 -106 375zM368 567q0 -133 51 -215 q59 -102 184 -102q119 0 187 90q61 80 61 203q0 325 -248 325q-116 0 -178 -92q-57 -80 -57 -209z" />
<glyph unicode="h" horiz-adv-x="1214" d="M110 0v1462h291v-551h6q106 176 309 176q219 0 309 -118q78 -103 78 -318v-651h-291v598q0 260 -186 260q-119 0 -172 -72q-53 -71 -53 -231v-555h-291z" />
<glyph unicode="i" horiz-adv-x="528" d="M118 0v1059h291v-1059h-291zM118 1223v239h291v-239h-291z" />
<glyph unicode="j" horiz-adv-x="569" d="M-38 -125q23 -8 63 -8q113 0 113 94v1098h291v-1112q0 -170 -76 -242q-84 -78 -297 -78q-53 0 -94 8v240zM138 1223v239h291v-239h-291z" />
<glyph unicode="k" horiz-adv-x="1175" d="M137 0v1462h291v-784l366 381h344l-399 -389l445 -670h-353l-291 473l-112 -108v-365h-291z" />
<glyph unicode="l" horiz-adv-x="528" d="M118 0v1462h291v-1462h-291z" />
<glyph unicode="m" horiz-adv-x="1855" d="M118 0v1059h274v-144h5q120 172 323 172q232 0 309 -176q121 176 320 176q387 0 387 -378v-709h-291v600q0 129 -27 182q-38 76 -151 76q-195 0 -195 -268v-590h-290v594q0 133 -19 178q-37 86 -158 86q-67 0 -118 -45q-78 -63 -78 -199v-614h-291z" />
<glyph unicode="n" horiz-adv-x="1214" d="M110 0v1059h276v-148h7q106 176 323 176q219 0 309 -118q78 -103 78 -318v-651h-291v598q0 260 -186 260q-119 0 -172 -72q-53 -71 -53 -231v-555h-291z" />
<glyph unicode="o" horiz-adv-x="1251" d="M77 528q0 254 150 406q149 153 397 153q250 0 399 -153q150 -152 150 -406q0 -252 -150 -403q-149 -154 -399 -154q-248 0 -397 154q-150 151 -150 403zM368 528q0 -338 256 -338q258 0 258 338q0 340 -258 340q-256 0 -256 -340z" />
<glyph unicode="p" horiz-adv-x="1251" d="M110 -373v1432h276v-135h5q102 163 315 163q235 0 365 -172q116 -153 116 -397q0 -227 -114 -379q-129 -168 -351 -168q-206 0 -317 160h-4v-504h-291zM391 526q0 -143 57 -231q65 -105 197 -105q251 0 251 336q0 144 -57 236q-67 106 -197 106q-133 0 -196 -106 q-55 -90 -55 -236z" />
<glyph unicode="q" horiz-adv-x="1251" d="M65 522q0 236 117 391q131 174 358 174q230 0 322 -163h4v135h276v-1432h-291v506h-4q-96 -162 -333 -162q-175 0 -297 123q-152 148 -152 428zM356 528q0 -338 252 -338q131 0 198 103q56 86 56 231q0 142 -56 234q-65 110 -192 110q-133 0 -201 -104q-57 -90 -57 -236z " />
<glyph unicode="r" horiz-adv-x="796" d="M110 0v1059h276v-197h5q41 101 135 162q94 63 202 63q29 0 64 -10v-270q-45 10 -104 10q-287 0 -287 -340v-477h-291z" />
<glyph unicode="s" horiz-adv-x="1099" d="M59 344h276q0 -88 70 -135q62 -43 154 -43q73 0 127 29q63 36 63 106q0 61 -88 98q-63 29 -242 66q-159 37 -231 86q-104 70 -104 197q0 339 460 339q439 0 467 -337h-276q-10 143 -199 143q-162 0 -162 -98q0 -68 105 -103q4 -2 225 -55q158 -37 232 -90 q104 -74 104 -207q0 -193 -152 -289q-127 -80 -331 -80q-209 0 -338 82q-154 97 -160 291z" />
<glyph unicode="t" horiz-adv-x="720" d="M12 864v195h176v317h291v-317h213v-195h-213v-524q0 -74 25 -98q24 -25 98 -25q55 0 90 8v-227q-62 -10 -170 -10q-158 0 -234 47q-100 57 -100 205v624h-176z" />
<glyph unicode="u" horiz-adv-x="1214" d="M110 408v651h291v-598q0 -260 186 -260q119 0 172 71q53 72 53 232v555h291v-1059h-276v147h-6q-107 -176 -324 -176q-219 0 -309 121q-78 101 -78 316z" />
<glyph unicode="v" horiz-adv-x="1064" d="M10 1059h305l223 -723h4l224 723h288l-358 -1059h-324z" />
<glyph unicode="w" horiz-adv-x="1667" d="M12 1059h307l195 -719h4l176 719h283l180 -717h4l194 717h299l-333 -1059h-299l-189 711h-4l-180 -711h-301z" />
<glyph unicode="x" horiz-adv-x="1099" d="M0 0l381 557l-348 502h332l186 -277l184 277h322l-348 -496l391 -563h-332l-221 334l-221 -334h-326z" />
<glyph unicode="y" horiz-adv-x="1062" d="M-12 1059h311l240 -725h4l231 725h301l-442 -1192q-90 -240 -364 -240q-80 0 -179 11v239q95 -10 152 -10h18q113 12 113 133q0 35 -12 66z" />
<glyph unicode="z" horiz-adv-x="1062" d="M45 0v219l551 621h-510v219h893v-219l-551 -621h590v-219h-973z" />
<glyph unicode="{" horiz-adv-x="681" d="M-18 473v178q66 0 119 41q69 51 69 144v385q0 127 93 209q75 67 159 67h260v-229h-110q-111 0 -111 -150v-311q0 -221 -203 -242v-6q68 -6 123 -51q80 -62 80 -174v-328q0 -149 111 -149h110v-230h-260q-84 0 -159 68q-93 82 -93 209v399q0 84 -69 131q-56 39 -119 39z " />
<glyph unicode="|" horiz-adv-x="456" d="M118 -438v2048h219v-2048h-219z" />
<glyph unicode="}" horiz-adv-x="681" d="M0 -143h111q110 0 110 149v328q0 112 78 174q55 45 125 51v6q-203 21 -203 242v311q0 150 -110 150h-111v229h260q84 0 160 -67q92 -82 92 -209v-385q0 -93 70 -144q53 -41 118 -41v-178q-63 0 -118 -39q-70 -47 -70 -131v-399q0 -127 -92 -209q-76 -68 -160 -68h-260 v230z" />
<glyph unicode="~" horiz-adv-x="1228" d="M137 520q86 176 256 176q78 0 227 -65q170 -74 209 -74q80 0 180 148l82 -191q-118 -176 -256 -176q-92 0 -209 68q-120 71 -235 71q-104 0 -172 -147z" />
<glyph d="M30 784l63 148h105q49 246 203 391q161 156 405 156q172 0 373 -103l-125 -256q-143 92 -268 92q-215 0 -287 -280h500l-64 -148h-459l-2 -86h437l-64 -147h-356q65 -324 303 -324q154 0 315 129l-2 -309q-137 -82 -315 -82q-260 0 -416 168q-143 150 -186 418h-158 l64 147h81v54q0 26 3 32h-150z" />
<glyph unicode="&#x20ac;" d="M30 784l63 148h105q49 246 203 391q161 156 405 156q172 0 373 -103l-125 -256q-143 92 -268 92q-215 0 -287 -280h500l-64 -148h-459l-2 -86h437l-64 -147h-356q65 -324 303 -324q154 0 315 129l-2 -309q-137 -82 -315 -82q-260 0 -416 168q-143 150 -186 418h-158 l64 147h81v54q0 26 3 32h-150z" />
<glyph unicode="&#xa1;" horiz-adv-x="569" d="M124 772v315h322v-315h-322zM132 18l80 631h145l78 -631v-393h-303v393z" />
<glyph unicode="&#xa2;" d="M43 512q0 240 125 395q133 160 364 180v175h121v-175q176 0 310 -108q141 -117 149 -295h-285q-6 74 -55 127q-49 51 -119 57v-678q74 13 127 80q51 66 51 146h285q-16 -193 -145 -312q-125 -116 -318 -133v-207h-121v207q-217 13 -354 168q-135 152 -135 373zM334 541 q0 -287 198 -351v676q-198 -53 -198 -325z" />
<glyph unicode="&#xa3;" d="M43 633v174h131q-92 115 -92 283q0 174 133 286q143 121 391 121q236 0 367 -131q131 -135 131 -381h-277q-20 272 -223 272q-90 0 -145 -51q-56 -51 -56 -137q0 -111 84 -262h273v-174h-215q16 -47 16 -127q0 -154 -168 -287l4 -4q76 47 140 47q41 0 161 -22 q95 -25 160 -25q98 0 180 88l123 -207q-133 -131 -319 -131q-129 0 -224 37q-108 41 -202 41q-137 0 -236 -78l-127 191q232 145 232 340q0 55 -39 137h-203z" />
<glyph unicode="&#xa4;" d="M40 305l117 119q-99 115 -99 291q0 196 99 295l-117 118l117 117l116 -115q111 95 299 95q175 0 281 -92l119 116l125 -125l-115 -112q92 -103 92 -293q0 -187 -94 -299l113 -115l-113 -112l-117 118q-106 -102 -293 -102q-190 0 -301 100l-114 -119zM312 715 q0 -119 66 -199q72 -88 192 -88q121 0 189 90q61 80 61 201q0 117 -61 196q-70 91 -187 91q-122 0 -194 -88q-66 -82 -66 -203z" />
<glyph unicode="&#xa5;" d="M-18 1462h334l270 -637l264 637h332l-317 -637h194v-194h-293l-30 -60v-94h323v-194h-323v-283h-312v283h-321v194h321v94l-28 60h-293v194h194z" />
<glyph unicode="&#xa6;" horiz-adv-x="456" d="M118 -182v512h219v-512h-219zM118 842v512h219v-512h-219z" />
<glyph unicode="&#xa7;" d="M20 637q0 221 219 299q-88 98 -88 207q0 164 137 264q123 90 291 90q186 0 305 -102q127 -109 127 -293h-254q0 78 -47 125q-47 51 -127 51q-59 0 -104 -35q-51 -39 -51 -96q2 -74 110 -141q29 -19 238 -117q344 -164 342 -377q0 -221 -213 -299q112 -84 112 -242 q0 -161 -141 -258q-125 -86 -295 -86q-209 0 -328 94q-133 103 -133 304h254q8 -179 201 -179q152 0 152 136q4 79 -107 147q-35 23 -242 119q-356 168 -358 389zM274 662q0 -66 65 -101l369 -201q33 -14 62 -14q38 0 67 39q27 37 27 74q0 80 -92 129l-338 190 q-43 23 -56 21q-43 -4 -73 -49q-31 -41 -31 -88z" />
<glyph unicode="&#xa8;" horiz-adv-x="530" d="M-83 1225v239h276v-239h-276zM339 1225v239h276v-239h-276z" />
<glyph unicode="&#xa9;" horiz-adv-x="1638" d="M32 731q0 340 238 559q225 207 548 207q324 0 549 -207q238 -219 238 -559q0 -338 -238 -557q-225 -209 -549 -209q-323 0 -548 209q-238 219 -238 557zM241 731q0 -260 168 -432q166 -170 409 -170q242 0 408 170q170 172 170 432t-170 432q-166 170 -408 170 q-243 0 -409 -170q-168 -172 -168 -432zM407 735q0 201 117 328q118 131 319 131q145 0 246 -82q106 -84 125 -235h-160q-37 153 -211 153q-115 0 -178 -82q-62 -78 -62 -209q0 -123 68 -207q68 -88 176 -88q184 0 207 160h166q-25 -149 -131 -237q-101 -86 -242 -86 q-197 0 -319 131q-121 129 -121 323z" />
<glyph unicode="&#xaa;" horiz-adv-x="704" d="M20 973q0 166 233 198l156 21q64 14 64 57q0 80 -123 80q-92 0 -101 -90h-209q33 223 320 223q307 0 307 -182v-340q0 -106 25 -154h-207q-12 41 -14 64q-76 -82 -222 -82q-229 0 -229 205zM229 977q0 -76 92 -76q150 0 150 154v41q-15 -13 -138 -37q-104 -27 -104 -82z " />
<glyph unicode="&#xab;" horiz-adv-x="909" d="M86 420v276l322 252v-246l-185 -145l185 -147v-246zM502 420v276l321 252v-246l-184 -145l184 -147v-246z" />
<glyph unicode="&#xac;" horiz-adv-x="1228" d="M98 612v219h1032v-628h-219v409h-813z" />
<glyph unicode="&#xad;" horiz-adv-x="833" d="M108 434v250h616v-250h-616z" />
<glyph unicode="&#xae;" horiz-adv-x="1638" d="M32 733q0 338 238 557q225 207 548 207q324 0 549 -207q238 -219 238 -557q0 -340 -238 -559q-225 -209 -549 -209q-323 0 -548 209q-238 219 -238 559zM241 733q0 -260 168 -434q166 -170 409 -170q242 0 408 170q170 174 170 434q0 258 -170 430q-166 170 -408 170 q-243 0 -409 -170q-168 -172 -168 -430zM513 305v858h324q336 0 336 -254q0 -211 -226 -229l230 -375h-178l-209 367h-107v-367h-170zM683 805h152q84 0 121 20q47 27 47 99q0 106 -176 106h-144v-225z" />
<glyph unicode="&#xaf;" horiz-adv-x="530" d="M-116 1268v153h764v-153h-764z" />
<glyph unicode="&#xb0;" horiz-adv-x="819" d="M106 1159q0 127 88 215t215 88t215 -88t88 -215t-88 -215t-215 -88t-215 88t-88 215zM239 1159q0 -74 51 -127q52 -53 119 -53q68 0 119 53t51 127t-51 127t-119 53q-67 0 -119 -53q-51 -53 -51 -127z" />
<glyph unicode="&#xb1;" horiz-adv-x="1228" d="M98 0v219h1034v-219h-1034zM98 549v219h408v268h219v-268h407v-219h-407v-268h-219v268h-408z" />
<glyph unicode="&#xb2;" horiz-adv-x="802" d="M55 559q0 148 84 246q55 63 203 156l129 86q67 57 67 124q0 56 -34 91q-35 36 -91 36q-77 0 -118 -65q-35 -55 -29 -127h-209q-2 164 90 258q96 98 281 98q137 0 225 -69q94 -76 94 -207q0 -154 -166 -260q-231 -150 -270 -203h428v-164h-684z" />
<glyph unicode="&#xb3;" horiz-adv-x="802" d="M49 868h197q12 -163 157 -163q64 0 107 36q43 37 43 93q0 77 -72 102q-43 14 -141 14v144q88 0 127 12q67 20 67 84q0 49 -38 80q-37 28 -89 28q-63 0 -102 -43q-37 -41 -35 -104h-196q4 143 92 227t239 84q134 0 226 -61q100 -70 100 -191q0 -141 -135 -176v-4 q166 -29 166 -192q0 -142 -105 -222q-98 -75 -250 -75q-167 0 -264 84q-98 86 -94 243z" />
<glyph unicode="&#xb4;" horiz-adv-x="530" d="M110 1206l197 291h321l-315 -291h-203z" />
<glyph unicode="&#xb5;" horiz-adv-x="1214" d="M110 -373v1432h291v-598q0 -260 186 -260q119 0 172 71q53 72 53 232v555h291v-1059h-276v147h-6q-113 -176 -267 -176q-108 0 -153 49v-393h-291z" />
<glyph unicode="&#xb6;" horiz-adv-x="1269" d="M4 1090q0 372 492 372h600v-1802h-209v1638h-226v-1638h-208v1071q-213 0 -332 96q-117 97 -117 263z" />
<glyph unicode="&#xb7;" horiz-adv-x="569" d="M112 588q0 71 53 125q51 49 121 49t121 -51q51 -52 51 -123q0 -68 -51 -119q-51 -53 -119 -53q-72 0 -125 51q-51 51 -51 121z" />
<glyph unicode="&#xb8;" horiz-adv-x="530" d="M24 -399l43 98q86 -37 172 -37q82 0 82 70q0 65 -82 65q-45 0 -82 -14l-43 49l121 168h100l-80 -106l2 -5q35 15 72 15q76 0 129 -35q60 -39 60 -109q0 -204 -240 -204q-131 0 -254 45z" />
<glyph unicode="&#xb9;" horiz-adv-x="802" d="M157 1120v154q238 -10 262 170h172v-885h-209v561h-225z" />
<glyph unicode="&#xba;" horiz-adv-x="751" d="M24 1114q0 160 96 254q94 94 254 94t256 -94t96 -254t-96 -254q-94 -92 -256 -92q-160 0 -254 92q-96 94 -96 254zM243 1114q0 -76 31 -129q37 -63 100 -63q66 0 103 63q30 53 30 129q0 78 -30 131q-37 64 -103 64q-63 0 -100 -64q-31 -53 -31 -131z" />
<glyph unicode="&#xbb;" horiz-adv-x="909" d="M86 164v246l184 147l-184 145v246l322 -252v-276zM502 164v246l184 147l-184 145v246l321 -252v-276z" />
<glyph unicode="&#xbc;" horiz-adv-x="1826" d="M49 1120v154q238 -10 262 170h172v-885h-209v561h-225zM311 -45l848 1524h174l-844 -1524h-178zM1018 182v191l385 487h205v-514h116v-164h-116v-182h-197v182h-393zM1173 346h238v295h-4z" />
<glyph unicode="&#xbd;" horiz-adv-x="1820" d="M49 1120v154q238 -10 262 170h172v-885h-209v561h-225zM311 -45l848 1524h174l-844 -1524h-178zM1040 0q0 147 84 246q55 63 203 155l129 86q68 58 68 125q0 56 -35 90q-35 37 -90 37q-78 0 -119 -65q-35 -56 -29 -127h-209q-2 164 90 258q97 98 281 98q137 0 225 -69 q94 -76 94 -207q0 -154 -165 -260q-232 -150 -271 -203h428v-164h-684z" />
<glyph unicode="&#xbe;" horiz-adv-x="1820" d="M83 868h197q12 -163 157 -163q64 0 107 36q43 37 43 93q0 77 -72 102q-43 14 -141 14v144q88 0 127 12q67 20 67 84q0 49 -38 80q-37 28 -89 28q-63 0 -102 -43q-37 -41 -35 -104h-196q4 143 92 227t239 84q134 0 226 -61q100 -70 100 -191q0 -141 -135 -176v-4 q166 -29 166 -192q0 -142 -105 -222q-98 -75 -250 -75q-167 0 -264 84q-98 86 -94 243zM493 -45l848 1524h174l-844 -1524h-178zM1062 182v191l385 487h205v-514h117v-164h-117v-182h-197v182h-393zM1218 346h237v295h-4z" />
<glyph unicode="&#xbf;" d="M65 -6q0 217 174 346q113 84 125 98q61 62 74 142v77h276v-92q-16 -190 -176 -321q-88 -70 -106 -92q-48 -56 -45 -129q0 -185 174 -185q100 0 155 78q51 72 51 188h302q-5 -223 -140 -362q-135 -143 -354 -143q-260 0 -399 139q-111 110 -111 256zM421 772v315h322v-315 h-322z" />
<glyph unicode="&#xc0;" horiz-adv-x="1402" d="M-14 0l555 1462h330l547 -1462h-334l-111 326h-547l-114 -326h-326zM328 1886h322l196 -291h-203zM510 565h379l-184 537h-4z" />
<glyph unicode="&#xc1;" horiz-adv-x="1402" d="M-14 0l555 1462h330l547 -1462h-334l-111 326h-547l-114 -326h-326zM510 565h379l-184 537h-4zM559 1595l197 291h322l-316 -291h-203z" />
<glyph unicode="&#xc2;" horiz-adv-x="1402" d="M-14 0l555 1462h330l547 -1462h-334l-111 326h-547l-114 -326h-326zM351 1595l227 291h266l225 -291h-239l-127 166l-131 -166h-221zM510 565h379l-184 537h-4z" />
<glyph unicode="&#xc3;" horiz-adv-x="1402" d="M-14 0l555 1462h330l547 -1462h-334l-111 326h-547l-114 -326h-326zM330 1616q12 98 72 170q67 78 168 80q59 0 147 -37q100 -35 133 -35q70 0 90 72h142q-23 -109 -62 -156q-55 -72 -168 -78q-71 0 -166 35q-104 35 -139 35q-67 0 -92 -86h-125zM510 565h379l-184 537 h-4z" />
<glyph unicode="&#xc4;" horiz-adv-x="1402" d="M-14 0l555 1462h330l547 -1462h-334l-111 326h-547l-114 -326h-326zM359 1614v239h276v-239h-276zM510 565h379l-184 537h-4zM781 1614v239h276v-239h-276z" />
<glyph unicode="&#xc5;" horiz-adv-x="1402" d="M-14 0l555 1462h330l547 -1462h-334l-111 326h-547l-114 -326h-326zM455 1774q0 104 74 178q71 71 176 71q104 0 178 -71q74 -74 74 -178q0 -105 -74 -177q-74 -71 -178 -71q-105 0 -176 71q-74 72 -74 177zM510 565h379l-184 537h-4zM576 1774q0 -62 35 -101 q34 -39 94 -39q59 0 96 39q35 39 35 101q0 61 -35 100q-37 39 -96 39q-60 0 -94 -39q-35 -39 -35 -100z" />
<glyph unicode="&#xc6;" horiz-adv-x="2009" d="M-22 0l698 1462h1241v-270h-679v-313h638v-250h-638v-359h696v-270h-1008v326h-459l-147 -326h-342zM574 565h352v627h-69z" />
<glyph unicode="&#xc7;" horiz-adv-x="1517" d="M77 725q0 334 190 549q199 223 529 223q248 0 420 -137q182 -143 211 -389h-312q-16 108 -108 182t-211 74q-203 0 -307 -156q-90 -133 -90 -346q0 -205 90 -336q106 -153 307 -153q291 0 332 327h311q-25 -274 -199 -436t-442 -162l-53 -71l2 -5q35 15 71 15 q76 0 129 -35q60 -39 60 -109q0 -204 -240 -204q-131 0 -254 45l43 98q86 -37 172 -37q82 0 82 70q0 65 -82 65q-45 0 -82 -14l-43 49l99 137q-113 13 -209 56q-197 86 -307 274q-109 184 -109 426z" />
<glyph unicode="&#xc8;" horiz-adv-x="1327" d="M141 0v1462h1094v-270h-772v-313h708v-250h-708v-359h788v-270h-1110zM334 1886h321l197 -291h-203z" />
<glyph unicode="&#xc9;" horiz-adv-x="1327" d="M141 0v1462h1094v-270h-772v-313h708v-250h-708v-359h788v-270h-1110zM571 1595l197 291h321l-315 -291h-203z" />
<glyph unicode="&#xca;" horiz-adv-x="1327" d="M141 0v1462h1094v-270h-772v-313h708v-250h-708v-359h788v-270h-1110zM321 1595l228 291h266l225 -291h-240l-127 166l-131 -166h-221z" />
<glyph unicode="&#xcb;" horiz-adv-x="1327" d="M141 0v1462h1094v-270h-772v-313h708v-250h-708v-359h788v-270h-1110zM346 1614v239h276v-239h-276zM768 1614v239h276v-239h-276z" />
<glyph unicode="&#xcc;" horiz-adv-x="604" d="M-55 1886h322l196 -291h-203zM142 0v1462h321v-1462h-321z" />
<glyph unicode="&#xcd;" horiz-adv-x="604" d="M139 1595l197 291h321l-315 -291h-203zM141 0v1462h322v-1462h-322z" />
<glyph unicode="&#xce;" horiz-adv-x="604" d="M-57 1595l227 291h267l225 -291h-240l-127 166l-131 -166h-221zM142 0v1462h321v-1462h-321z" />
<glyph unicode="&#xcf;" horiz-adv-x="604" d="M-49 1614v239h276v-239h-276zM141 0v1462h322v-1462h-322zM373 1614v239h276v-239h-276z" />
<glyph unicode="&#xd0;" horiz-adv-x="1517" d="M6 637v237h135v588h631q297 0 473 -180q191 -192 191 -543q0 -331 -164 -528q-176 -211 -500 -211h-631v637h-135zM463 270h286q156 0 252 99q113 114 113 340q0 483 -422 483h-229v-318h327v-239h-327v-365z" />
<glyph unicode="&#xd1;" horiz-adv-x="1517" d="M141 0v1462h319l611 -981h4v981h301v-1462h-322l-608 979h-4v-979h-301zM391 1616q12 98 72 170q67 78 167 80q60 0 148 -37q100 -35 133 -35q70 0 90 72h141q-22 -109 -61 -156q-55 -72 -168 -78q-72 0 -166 35q-104 35 -139 35q-68 0 -92 -86h-125z" />
<glyph unicode="&#xd2;" horiz-adv-x="1593" d="M77 725q0 334 190 549q199 223 529 223t528 -223q191 -215 191 -549q0 -326 -191 -539q-198 -221 -528 -221t-529 221q-190 213 -190 539zM399 725q0 -205 90 -336q106 -153 307 -153t307 153q90 131 90 336q0 213 -90 346q-104 156 -307 156t-307 -156 q-90 -133 -90 -346zM407 1886h321l197 -291h-203z" />
<glyph unicode="&#xd3;" horiz-adv-x="1593" d="M77 725q0 334 190 549q199 223 529 223t528 -223q191 -215 191 -549q0 -326 -191 -539q-198 -221 -528 -221t-529 221q-190 213 -190 539zM399 725q0 -205 90 -336q106 -153 307 -153t307 153q90 131 90 336q0 213 -90 346q-104 156 -307 156t-307 -156 q-90 -133 -90 -346zM685 1595l197 291h321l-315 -291h-203z" />
<glyph unicode="&#xd4;" horiz-adv-x="1593" d="M77 725q0 334 190 549q199 223 529 223t528 -223q191 -215 191 -549q0 -326 -191 -539q-198 -221 -528 -221t-529 221q-190 213 -190 539zM399 725q0 -205 90 -336q106 -153 307 -153t307 153q90 131 90 336q0 213 -90 346q-104 156 -307 156t-307 -156 q-90 -133 -90 -346zM450 1595l227 291h266l226 -291h-240l-127 166l-131 -166h-221z" />
<glyph unicode="&#xd5;" horiz-adv-x="1593" d="M77 725q0 334 190 549q199 223 529 223t528 -223q191 -215 191 -549q0 -326 -191 -539q-198 -221 -528 -221t-529 221q-190 213 -190 539zM399 725q0 -205 90 -336q106 -153 307 -153t307 153q90 131 90 336q0 213 -90 346q-104 156 -307 156t-307 -156 q-90 -133 -90 -346zM421 1616q12 98 72 170q67 78 168 80q59 0 147 -37q100 -35 133 -35q70 0 90 72h142q-23 -109 -62 -156q-55 -72 -168 -78q-71 0 -166 35q-104 35 -139 35q-67 0 -92 -86h-125z" />
<glyph unicode="&#xd6;" horiz-adv-x="1593" d="M77 725q0 334 190 549q199 223 529 223t528 -223q191 -215 191 -549q0 -326 -191 -539q-198 -221 -528 -221t-529 221q-190 213 -190 539zM399 725q0 -205 90 -336q106 -153 307 -153t307 153q90 131 90 336q0 213 -90 346q-104 156 -307 156t-307 -156 q-90 -133 -90 -346zM442 1614v239h276v-239h-276zM863 1614v239h277v-239h-277z" />
<glyph unicode="&#xd7;" horiz-adv-x="1228" d="M131 190l330 328l-326 328l156 155l325 -327l328 327l156 -155l-330 -328l330 -328l-156 -155l-328 330l-329 -330z" />
<glyph unicode="&#xd8;" horiz-adv-x="1593" d="M69 20l176 195q-168 205 -168 510q0 334 191 549q198 223 528 223q277 0 461 -158l164 183l102 -90l-172 -191q164 -211 164 -516q0 -326 -191 -539q-198 -221 -528 -221q-270 0 -457 156l-170 -189zM399 725q0 -160 57 -276l606 673q-104 105 -266 105q-203 0 -307 -156 q-90 -133 -90 -346zM534 336q100 -100 262 -100q201 0 307 153q90 131 90 336q0 160 -55 279z" />
<glyph unicode="&#xd9;" horiz-adv-x="1517" d="M135 553v909h322v-909q0 -145 53 -219q71 -98 248 -98q168 0 237 75q66 74 66 242v909h321v-909q0 -291 -166 -442q-159 -146 -458 -146q-623 0 -623 588zM354 1886h322l196 -291h-202z" />
<glyph unicode="&#xda;" horiz-adv-x="1517" d="M135 553v909h322v-909q0 -145 53 -219q71 -98 248 -98q168 0 237 75q66 74 66 242v909h321v-909q0 -291 -166 -442q-159 -146 -458 -146q-623 0 -623 588zM645 1595l197 291h321l-315 -291h-203z" />
<glyph unicode="&#xdb;" horiz-adv-x="1517" d="M135 553v909h322v-909q0 -145 53 -219q71 -98 248 -98q168 0 237 75q66 74 66 242v909h321v-909q0 -291 -166 -442q-159 -146 -458 -146q-623 0 -623 588zM403 1595l228 291h266l225 -291h-239l-127 166l-132 -166h-221z" />
<glyph unicode="&#xdc;" horiz-adv-x="1517" d="M135 553v909h322v-909q0 -145 53 -219q71 -98 248 -98q168 0 237 75q66 74 66 242v909h321v-909q0 -291 -166 -442q-159 -146 -458 -146q-623 0 -623 588zM409 1614v239h277v-239h-277zM831 1614v239h277v-239h-277z" />
<glyph unicode="&#xdd;" horiz-adv-x="1366" d="M-18 1462h362l343 -577l339 577h359l-543 -901v-561h-321v569zM576 1595l197 291h321l-315 -291h-203z" />
<glyph unicode="&#xde;" horiz-adv-x="1366" d="M141 0v1462h322v-198h337q256 0 392 -146q114 -125 114 -323q0 -199 -114 -324q-136 -145 -392 -145h-337v-326h-322zM463 575h249q283 0 283 220q0 219 -283 219h-249v-439z" />
<glyph unicode="&#xdf;" horiz-adv-x="1251" d="M114 0v1006q0 491 481 491q199 0 326 -94q139 -107 139 -299q0 -98 -51 -178q-55 -80 -139 -107v-4q129 -27 200 -131q66 -98 66 -235q0 -195 -125 -334q-129 -144 -319 -144q-84 0 -168 13v237q32 -10 84 -10q102 0 172 72q65 71 65 176q0 250 -250 250q-22 0 -71 -4 v192q32 -4 45 -4q90 0 147 43q68 49 68 139q0 182 -197 182q-182 0 -182 -200v-1057h-291z" />
<glyph unicode="&#xe0;" horiz-adv-x="1175" d="M65 289q2 164 113 241q82 58 245 80l242 35q109 29 105 105q0 143 -189 143q-178 0 -192 -160h-291q12 187 166 279q129 75 331 75q465 0 465 -301v-550q0 -177 37 -236h-295q-18 57 -20 102q-125 -131 -357 -131q-159 0 -256 78q-104 84 -104 240zM262 1497h321 l197 -291h-203zM356 301q0 -135 178 -135q236 0 236 244v108q-25 -22 -242 -61q-172 -31 -172 -156z" />
<glyph unicode="&#xe1;" horiz-adv-x="1175" d="M65 289q2 164 113 241q82 58 245 80l242 35q109 29 105 105q0 143 -189 143q-178 0 -192 -160h-291q12 187 166 279q129 75 331 75q465 0 465 -301v-550q0 -177 37 -236h-295q-18 57 -20 102q-125 -131 -357 -131q-159 0 -256 78q-104 84 -104 240zM356 301 q0 -135 178 -135q236 0 236 244v108q-25 -22 -242 -61q-172 -31 -172 -156zM466 1206l197 291h322l-316 -291h-203z" />
<glyph unicode="&#xe2;" horiz-adv-x="1175" d="M65 289q2 164 113 241q82 58 245 80l242 35q109 29 105 105q0 143 -189 143q-178 0 -192 -160h-291q12 187 166 279q129 75 331 75q465 0 465 -301v-550q0 -177 37 -236h-295q-18 57 -20 102q-125 -131 -357 -131q-159 0 -256 78q-104 84 -104 240zM239 1206l227 291h267 l225 -291h-240l-127 166l-131 -166h-221zM356 301q0 -135 178 -135q236 0 236 244v108q-25 -22 -242 -61q-172 -31 -172 -156z" />
<glyph unicode="&#xe3;" horiz-adv-x="1175" d="M65 289q2 164 113 241q82 58 245 80l242 35q109 29 105 105q0 143 -189 143q-178 0 -192 -160h-291q12 187 166 279q129 75 331 75q465 0 465 -301v-550q0 -177 37 -236h-295q-18 57 -20 102q-125 -131 -357 -131q-159 0 -256 78q-104 84 -104 240zM221 1227 q12 98 71 170q68 78 168 80q60 0 148 -37q100 -35 133 -35q69 0 90 72h141q-22 -109 -61 -156q-55 -72 -168 -78q-72 0 -166 35q-104 35 -139 35q-68 0 -92 -86h-125zM356 301q0 -135 178 -135q236 0 236 244v108q-25 -22 -242 -61q-172 -31 -172 -156z" />
<glyph unicode="&#xe4;" horiz-adv-x="1175" d="M65 289q2 164 113 241q82 58 245 80l242 35q109 29 105 105q0 143 -189 143q-178 0 -192 -160h-291q12 187 166 279q129 75 331 75q465 0 465 -301v-550q0 -177 37 -236h-295q-18 57 -20 102q-125 -131 -357 -131q-159 0 -256 78q-104 84 -104 240zM249 1225v239h277 v-239h-277zM356 301q0 -135 178 -135q236 0 236 244v108q-25 -22 -242 -61q-172 -31 -172 -156zM671 1225v239h277v-239h-277z" />
<glyph unicode="&#xe5;" horiz-adv-x="1175" d="M65 289q2 164 113 241q82 58 245 80l242 35q109 29 105 105q0 143 -189 143q-178 0 -192 -160h-291q12 187 166 279q129 75 331 75q465 0 465 -301v-550q0 -177 37 -236h-295q-18 57 -20 102q-125 -131 -357 -131q-159 0 -256 78q-104 84 -104 240zM346 1401 q0 104 73 178q72 72 176 72q105 0 179 -72q73 -74 73 -178q0 -105 -73 -176q-74 -72 -179 -72q-104 0 -176 72q-73 71 -73 176zM356 301q0 -135 178 -135q236 0 236 244v108q-25 -22 -242 -61q-172 -31 -172 -156zM466 1401q0 -62 35 -101q35 -38 94 -38q60 0 97 38 q35 39 35 101q0 61 -35 100q-37 39 -97 39q-59 0 -94 -39t-35 -100z" />
<glyph unicode="&#xe6;" horiz-adv-x="1857" d="M77 287q0 164 113 241q77 58 241 82q240 37 271 47q86 27 86 101q0 135 -189 135q-194 0 -203 -164h-290q6 186 161 281q129 77 338 77q250 0 351 -143q122 143 354 143q248 0 377 -190q110 -168 110 -438h-755q-4 -111 63 -199q74 -94 189 -94q182 0 210 166h283 q-45 -168 -180 -264q-131 -97 -307 -97q-271 0 -396 181q-137 -181 -432 -181q-170 0 -272 70q-123 82 -123 246zM368 303q0 -137 180 -137q92 0 160 51q80 62 80 168v131q-27 -22 -250 -63q-170 -33 -170 -150zM1042 643h465q0 105 -58 174q-63 76 -170 76q-106 0 -174 -76 q-63 -72 -63 -174z" />
<glyph unicode="&#xe7;" horiz-adv-x="1175" d="M77 514q0 254 141 410q148 163 400 163q200 0 336 -98q149 -110 161 -303h-284q-29 182 -215 182q-127 0 -195 -112q-53 -94 -53 -232q0 -135 53 -225q64 -109 188 -109q201 0 232 216h280q-26 -209 -163 -324q-127 -102 -318 -111l-57 -77l2 -5q35 15 72 15 q75 0 129 -35q59 -39 59 -109q0 -204 -240 -204q-131 0 -254 45l43 98q86 -37 172 -37q82 0 82 70q0 65 -82 65q-45 0 -81 -14l-43 49l102 143q-88 11 -152 35q-315 129 -315 504z" />
<glyph unicode="&#xe8;" horiz-adv-x="1175" d="M59 528q0 242 150 400q151 159 391 159q258 0 401 -192q131 -176 113 -436h-764q12 -269 260 -269q84 0 151 46q64 38 78 92h256q-116 -357 -495 -357q-248 0 -396 156q-145 154 -145 401zM213 1497h321l197 -291h-203zM350 643h473q-41 225 -232 225q-124 0 -188 -82 q-47 -59 -53 -143z" />
<glyph unicode="&#xe9;" horiz-adv-x="1175" d="M59 528q0 242 150 400q151 159 391 159q258 0 401 -192q131 -176 113 -436h-764q12 -269 260 -269q84 0 151 46q64 38 78 92h256q-116 -357 -495 -357q-248 0 -396 156q-145 154 -145 401zM350 643h473q-41 225 -232 225q-124 0 -188 -82q-47 -59 -53 -143zM489 1206 l197 291h321l-315 -291h-203z" />
<glyph unicode="&#xea;" horiz-adv-x="1175" d="M59 528q0 242 150 400q151 159 391 159q258 0 401 -192q131 -176 113 -436h-764q12 -269 260 -269q84 0 151 46q64 38 78 92h256q-116 -357 -495 -357q-248 0 -396 156q-145 154 -145 401zM241 1206l228 291h266l225 -291h-239l-127 166l-132 -166h-221zM350 643h473 q-41 225 -232 225q-124 0 -188 -82q-47 -59 -53 -143z" />
<glyph unicode="&#xeb;" horiz-adv-x="1175" d="M59 528q0 242 150 400q151 159 391 159q258 0 401 -192q131 -176 113 -436h-764q12 -269 260 -269q84 0 151 46q64 38 78 92h256q-116 -357 -495 -357q-248 0 -396 156q-145 154 -145 401zM249 1225v239h277v-239h-277zM350 643h473q-41 225 -232 225q-124 0 -188 -82 q-47 -59 -53 -143zM671 1225v239h277v-239h-277z" />
<glyph unicode="&#xec;" horiz-adv-x="528" d="M-108 1497h322l196 -291h-203zM119 0v1059h291v-1059h-291z" />
<glyph unicode="&#xed;" horiz-adv-x="528" d="M118 0v1059h291v-1059h-291zM118 1206l197 291h321l-315 -291h-203z" />
<glyph unicode="&#xee;" horiz-adv-x="528" d="M-90 1206l227 291h267l225 -291h-240l-127 166l-131 -166h-221zM119 0v1059h291v-1059h-291z" />
<glyph unicode="&#xef;" horiz-adv-x="528" d="M-83 1225v239h276v-239h-276zM120 0v1059h291v-1059h-291zM339 1225v239h276v-239h-276z" />
<glyph unicode="&#xf0;" horiz-adv-x="1251" d="M77 506q0 213 113 360q129 170 358 170q156 0 277 -82h4q-54 123 -209 260l-230 -114l-118 114l219 111q-80 59 -172 102l188 142q111 -62 203 -135l252 127l106 -121l-233 -117q346 -334 338 -764q0 -256 -150 -420q-151 -168 -399 -168q-246 0 -397 152 q-150 147 -150 383zM368 528q0 -338 256 -338q258 0 258 338q0 129 -60 213q-69 101 -200 101t-197 -101q-57 -84 -57 -213z" />
<glyph unicode="&#xf1;" horiz-adv-x="1214" d="M110 0v1059h276v-148h7q106 176 323 176q219 0 309 -118q78 -103 78 -318v-651h-291v598q0 260 -186 260q-119 0 -172 -72q-53 -71 -53 -231v-555h-291zM233 1227q12 98 72 170q67 78 167 80q60 0 148 -37q100 -35 133 -35q70 0 90 72h141q-22 -109 -61 -156 q-55 -72 -168 -78q-72 0 -166 35q-104 35 -139 35q-68 0 -92 -86h-125z" />
<glyph unicode="&#xf2;" horiz-adv-x="1251" d="M77 528q0 254 150 406q149 153 397 153q250 0 399 -153q150 -152 150 -406q0 -252 -150 -403q-149 -154 -399 -154q-248 0 -397 154q-150 151 -150 403zM214 1497h322l196 -291h-202zM368 528q0 -338 256 -338q258 0 258 338q0 340 -258 340q-256 0 -256 -340z" />
<glyph unicode="&#xf3;" horiz-adv-x="1251" d="M77 528q0 254 150 406q149 153 397 153q250 0 399 -153q150 -152 150 -406q0 -252 -150 -403q-149 -154 -399 -154q-248 0 -397 154q-150 151 -150 403zM368 528q0 -338 256 -338q258 0 258 338q0 340 -258 340q-256 0 -256 -340zM513 1206l197 291h321l-315 -291h-203z " />
<glyph unicode="&#xf4;" horiz-adv-x="1251" d="M77 528q0 254 150 406q149 153 397 153q250 0 399 -153q150 -152 150 -406q0 -252 -150 -403q-149 -154 -399 -154q-248 0 -397 154q-150 151 -150 403zM270 1206l227 291h266l225 -291h-239l-127 166l-131 -166h-221zM368 528q0 -338 256 -338q258 0 258 338 q0 340 -258 340q-256 0 -256 -340z" />
<glyph unicode="&#xf5;" horiz-adv-x="1251" d="M77 528q0 254 150 406q149 153 397 153q250 0 399 -153q150 -152 150 -406q0 -252 -150 -403q-149 -154 -399 -154q-248 0 -397 154q-150 151 -150 403zM251 1227q12 98 72 170q67 78 168 80q59 0 147 -37q101 -35 133 -35q70 0 90 72h142q-23 -109 -62 -156 q-55 -72 -168 -78q-71 0 -166 35q-104 35 -139 35q-67 0 -92 -86h-125zM368 528q0 -338 256 -338q258 0 258 338q0 340 -258 340q-256 0 -256 -340z" />
<glyph unicode="&#xf6;" horiz-adv-x="1251" d="M77 528q0 254 150 406q149 153 397 153q250 0 399 -153q150 -152 150 -406q0 -252 -150 -403q-149 -154 -399 -154q-248 0 -397 154q-150 151 -150 403zM278 1225v239h276v-239h-276zM368 528q0 -338 256 -338q258 0 258 338q0 340 -258 340q-256 0 -256 -340zM700 1225 v239h276v-239h-276z" />
<glyph unicode="&#xf7;" horiz-adv-x="1228" d="M98 408v219h1034v-219h-1034zM442 92q0 72 53 123q52 49 121 49q70 0 121 -49q51 -51 51 -123q0 -65 -51 -119q-51 -55 -119 -55q-71 0 -125 53q-51 52 -51 121zM442 942q0 72 53 125q52 49 121 49q70 0 121 -51t51 -123q0 -68 -51 -119q-51 -53 -119 -53q-71 0 -125 51 q-51 51 -51 121z" />
<glyph unicode="&#xf8;" horiz-adv-x="1251" d="M77 528q0 254 150 406q149 153 397 153q196 0 334 -98l108 125l76 -65l-111 -125q142 -152 142 -396q0 -252 -150 -403q-149 -154 -399 -154q-199 0 -338 103l-121 -137l-76 65l123 139q-135 148 -135 387zM368 528q0 -106 31 -176l395 451q-62 65 -170 65 q-256 0 -256 -340zM450 260q63 -70 174 -70q258 0 258 338q0 107 -33 187z" />
<glyph unicode="&#xf9;" horiz-adv-x="1214" d="M110 408v651h291v-598q0 -260 186 -260q119 0 172 71q53 72 53 232v555h291v-1059h-276v147h-6q-107 -176 -324 -176q-219 0 -309 121q-78 101 -78 316zM198 1497h322l196 -291h-203z" />
<glyph unicode="&#xfa;" horiz-adv-x="1214" d="M110 408v651h291v-598q0 -260 186 -260q119 0 172 71q53 72 53 232v555h291v-1059h-276v147h-6q-107 -176 -324 -176q-219 0 -309 121q-78 101 -78 316zM495 1206l197 291h321l-315 -291h-203z" />
<glyph unicode="&#xfb;" horiz-adv-x="1214" d="M110 408v651h291v-598q0 -260 186 -260q119 0 172 71q53 72 53 232v555h291v-1059h-276v147h-6q-107 -176 -324 -176q-219 0 -309 121q-78 101 -78 316zM251 1206l228 291h266l225 -291h-239l-127 166l-132 -166h-221z" />
<glyph unicode="&#xfc;" horiz-adv-x="1214" d="M110 408v651h291v-598q0 -260 186 -260q119 0 172 71q53 72 53 232v555h291v-1059h-276v147h-6q-107 -176 -324 -176q-219 0 -309 121q-78 101 -78 316zM262 1225v239h276v-239h-276zM683 1225v239h277v-239h-277z" />
<glyph unicode="&#xfd;" horiz-adv-x="1062" d="M-12 1059h311l240 -725h4l231 725h301l-442 -1192q-90 -240 -364 -240q-80 0 -179 11v239q111 -12 170 -10q113 12 113 133q0 35 -12 66zM432 1206l197 291h322l-316 -291h-203z" />
<glyph unicode="&#xfe;" horiz-adv-x="1251" d="M110 -373v1835h291v-538h4q102 163 301 163q235 0 365 -172q116 -153 116 -397q0 -227 -114 -379q-129 -168 -351 -168q-206 0 -317 160h-4v-504h-291zM391 526q0 -143 57 -231q65 -105 197 -105q251 0 251 336q0 144 -57 236q-67 106 -197 106q-133 0 -196 -106 q-55 -90 -55 -236z" />
<glyph unicode="&#xff;" horiz-adv-x="1062" d="M-12 1059h311l240 -725h4l231 725h301l-442 -1192q-90 -240 -364 -240q-80 0 -179 11v239q111 -12 170 -10q113 12 113 133q0 35 -12 66zM193 1225v239h276v-239h-276zM615 1225v239h276v-239h-276z" />
<glyph unicode="&#x152;" horiz-adv-x="2238" d="M77 723q0 319 180 539q193 235 506 235q238 0 346 -139h4v104h1024v-270h-725v-313h664v-250h-664v-359h740v-270h-1039v111h-4q-133 -146 -352 -146q-313 0 -502 228q-178 213 -178 530zM399 727q0 -203 88 -336q102 -155 292 -155q148 0 236 92q86 92 86 241v349 q0 137 -90 223q-88 86 -225 86q-199 0 -301 -158q-86 -135 -86 -342z" />
<glyph unicode="&#x153;" horiz-adv-x="1896" d="M77 535q0 237 141 393q146 159 379 159q258 0 365 -167q110 167 354 167q264 0 401 -188q119 -166 119 -440h-755q0 -121 61 -193q68 -76 190 -76q154 0 213 146h283q-51 -172 -182 -268q-133 -97 -314 -97q-270 0 -383 181q-106 -181 -374 -181q-236 0 -371 168 q-127 156 -127 396zM368 524q0 -131 47 -221q59 -113 178 -113q234 0 234 342q0 336 -228 336q-123 0 -182 -110q-49 -90 -49 -234zM1081 643h464q-10 225 -235 225q-107 0 -168 -65q-57 -62 -61 -160z" />
<glyph unicode="&#x178;" horiz-adv-x="1366" d="M-18 1462h362l343 -577l339 577h359l-543 -901v-561h-321v569zM338 1614v239h277v-239h-277zM760 1614v239h277v-239h-277z" />
<glyph unicode="&#x2c6;" horiz-adv-x="530" d="M-94 1206l227 291h267l225 -291h-240l-127 166l-131 -166h-221z" />
<glyph unicode="&#x2dc;" horiz-adv-x="530" d="M-110 1227q12 98 72 170q67 78 168 80q59 0 147 -37q100 -35 133 -35q70 0 90 72h142q-23 -109 -62 -156q-55 -72 -168 -78q-71 0 -166 35q-104 35 -139 35q-67 0 -92 -86h-125z" />
<glyph unicode="&#x2000;" horiz-adv-x="1011" />
<glyph unicode="&#x2001;" horiz-adv-x="2023" />
<glyph unicode="&#x2002;" horiz-adv-x="1011" />
<glyph unicode="&#x2003;" horiz-adv-x="2023" />
<glyph unicode="&#x2004;" horiz-adv-x="674" />
<glyph unicode="&#x2005;" horiz-adv-x="505" />
<glyph unicode="&#x2006;" horiz-adv-x="337" />
<glyph unicode="&#x2007;" horiz-adv-x="337" />
<glyph unicode="&#x2008;" horiz-adv-x="252" />
<glyph unicode="&#x2009;" horiz-adv-x="404" />
<glyph unicode="&#x200a;" horiz-adv-x="112" />
<glyph unicode="&#x2010;" horiz-adv-x="833" d="M108 434v250h616v-250h-616z" />
<glyph unicode="&#x2011;" horiz-adv-x="833" d="M108 434v250h616v-250h-616z" />
<glyph unicode="&#x2012;" horiz-adv-x="833" d="M108 434v250h616v-250h-616z" />
<glyph unicode="&#x2013;" horiz-adv-x="1024" d="M0 434v250h1024v-250h-1024z" />
<glyph unicode="&#x2014;" horiz-adv-x="2048" d="M266 434v250h1516v-250h-1516z" />
<glyph unicode="&#x2018;" horiz-adv-x="569" d="M143 805v313q-4 133 80 232q82 96 211 112v-135q-135 -45 -135 -207h135v-315h-291z" />
<glyph unicode="&#x2019;" horiz-adv-x="569" d="M139 805v135q135 45 135 207h-135v315h291v-313q4 -133 -80 -231q-82 -97 -211 -113z" />
<glyph unicode="&#x201a;" horiz-adv-x="569" d="M139 0v315h291v-313q4 -133 -80 -231q-82 -97 -211 -113v135q135 45 135 207h-135z" />
<glyph unicode="&#x201c;" horiz-adv-x="948" d="M114 805v313q-4 133 80 232q82 96 211 112v-135q-135 -45 -135 -207h135v-315h-291zM550 805v313q-4 133 80 232q82 96 211 112v-135q-135 -45 -135 -207h135v-315h-291z" />
<glyph unicode="&#x201d;" horiz-adv-x="948" d="M110 805v135q135 45 135 207h-135v315h291v-313q4 -133 -80 -231q-82 -97 -211 -113zM546 805v135q135 45 135 207h-135v315h291v-313q4 -133 -80 -231q-82 -97 -211 -113z" />
<glyph unicode="&#x201e;" horiz-adv-x="948" d="M110 0v315h291v-313q4 -133 -80 -231q-82 -97 -211 -113v135q135 45 135 207h-135zM546 0v315h291v-313q4 -133 -80 -231q-82 -97 -211 -113v135q135 45 135 207h-135z" />
<glyph unicode="&#x2022;" horiz-adv-x="1026" d="M147 731q0 152 106 258q107 107 259 107q151 0 260 -107q106 -106 106 -258q0 -151 -106 -260q-109 -106 -260 -106q-152 0 -259 106q-106 109 -106 260z" />
<glyph unicode="&#x2026;" horiz-adv-x="2048" d="M180 0v315h322v-315h-322zM862 0v315h322v-315h-322zM1544 0v315h322v-315h-322z" />
<glyph unicode="&#x202f;" horiz-adv-x="404" />
<glyph unicode="&#x2039;" horiz-adv-x="493" d="M86 420v276l322 252v-246l-185 -145l185 -147v-246z" />
<glyph unicode="&#x203a;" horiz-adv-x="493" d="M86 164v246l184 147l-184 145v246l322 -252v-276z" />
<glyph unicode="&#x205f;" horiz-adv-x="505" />
<glyph unicode="&#x2122;" horiz-adv-x="2048" d="M126 1298v164h688v-164h-239v-680h-209v680h-240zM923 618v844h278l211 -555l211 555h277v-844h-197v599h-4l-217 -599h-142l-217 599h-4v-599h-196z" />
<glyph unicode="&#xe000;" horiz-adv-x="1060" d="M0 1060h1060v-1060h-1060v1060z" />
<glyph unicode="&#xfb01;" horiz-adv-x="1251" d="M0 864v195h174v82q0 145 88 231q94 90 266 90q29 0 78 -4l76 -4v-217q-51 6 -107 6q-110 0 -110 -121v-63h201v-195h-201v-864h-291v864h-174zM842 0v1059h291v-1059h-291zM842 1223v239h291v-239h-291z" />
<glyph unicode="&#xfb02;" horiz-adv-x="1251" d="M0 864v195h174v82q0 145 88 231q94 90 266 90q29 0 78 -4l76 -4v-217q-51 6 -107 6q-110 0 -110 -121v-63h201v-195h-201v-864h-291v864h-174zM842 0v1462h291v-1462h-291z" />
<glyph unicode="&#xfb03;" horiz-adv-x="1890" d="M1480 0v1059h291v-1059h-291zM1480 1223v239h291v-239h-291zM681 864v195h174v82q0 145 88 231q94 90 266 90q29 0 78 -4l76 -4v-217q-51 6 -107 6q-110 0 -110 -121v-63h201v-195h-201v-864h-291v864h-174zM0 864v195h174v82q0 145 88 231q94 90 266 90q29 0 78 -4 l76 -4v-217q-51 6 -107 6q-110 0 -110 -121v-63h201v-195h-201v-864h-291v864h-174z" />
<glyph unicode="&#xfb04;" horiz-adv-x="1890" d="M1480 0v1462h291v-1462h-291zM681 864v195h174v82q0 145 88 231q94 90 266 90q29 0 78 -4l76 -4v-217q-51 6 -107 6q-110 0 -110 -121v-63h201v-195h-201v-864h-291v864h-174zM0 864v195h174v82q0 145 88 231q94 90 266 90q29 0 78 -4l76 -4v-217q-51 6 -107 6 q-110 0 -110 -121v-63h201v-195h-201v-864h-291v864h-174z" />
</font>
</defs>
</svg>
