<?xml version="1.0" standalone="no"?>
<!DOCTYPE svg PUBLIC "-//W3C//DTD SVG 1.1//EN" "http://www.w3.org/Graphics/SVG/1.1/DTD/svg11.dtd" >
<svg xmlns="http://www.w3.org/2000/svg">
<metadata>
This is a custom SVG webfont generated by Font Squirrel.
</metadata>
<defs>
<font id="WebfontItalic" horiz-adv-x="1138" >
<font-face units-per-em="2048" ascent="1638" descent="-410" />
<missing-glyph horiz-adv-x="569" />
<glyph unicode=" "  horiz-adv-x="569" />
<glyph unicode="&#x09;" horiz-adv-x="569" />
<glyph unicode="&#xa0;" horiz-adv-x="569" />
<glyph unicode="!" horiz-adv-x="530" d="M0 0l49 227h227l-49 -227h-227zM141 375l88 631l97 456h190l-96 -456l-184 -631h-95z" />
<glyph unicode="&#x22;" horiz-adv-x="872" d="M299 934v528h139v-528h-139zM586 934v528h139v-528h-139z" />
<glyph unicode="#" d="M69 422l18 139h199l43 307h-207l19 140h209l59 419h141l-59 -419h250l59 419h141l-59 -419h186l-18 -140h-186l-43 -307h190l-18 -139h-191l-59 -422h-142l60 422h-252l-59 -422h-142l60 422h-199zM429 561h250l43 307h-250z" />
<glyph unicode="$" d="M1 479h184q-17 -297 221 -346l111 551q-174 53 -256 123q-107 94 -107 256q0 205 162 332q156 123 364 102l27 129h109l-29 -141q156 -43 244 -154q100 -123 88 -301h-185q9 242 -178 303l-100 -504l110 -38q312 -89 312 -369q0 -234 -199 -367q-180 -121 -399 -90 l-35 -164h-109l37 174q-395 66 -372 504zM338 1083q0 -153 187 -215l26 -12l99 487q-117 0 -203 -53q-109 -69 -109 -207zM510 119q103 -27 232 45q151 84 151 239q0 127 -84 183q-22 16 -188 73z" />
<glyph unicode="%" horiz-adv-x="1896" d="M161 930q0 192 92 344q107 178 287 178q299 0 299 -297q0 -203 -90 -348q-105 -174 -293 -174q-137 0 -215 78q-80 80 -80 219zM300 938q0 -193 162 -193q121 0 186 146q52 117 52 274q0 174 -150 174q-119 0 -192 -147q-58 -121 -58 -254zM427 -57l891 1542h131 l-891 -1542h-131zM1050 272q0 193 92 344q106 179 287 179q299 0 299 -297q0 -203 -90 -348q-105 -175 -293 -175q-137 0 -215 78q-80 80 -80 219zM1189 281q0 -193 162 -193q121 0 186 145q51 117 51 275q0 174 -149 174q-119 0 -193 -147q-57 -121 -57 -254z" />
<glyph unicode="&#x26;" horiz-adv-x="1290" d="M43 354q0 164 133 287q80 74 275 174q-121 191 -121 324q0 145 102 235q103 88 262 88q137 0 232 -69q102 -76 102 -209q0 -221 -360 -414l229 -377q109 152 129 297h168q-53 -239 -211 -424l174 -266h-199l-90 152q-186 -177 -417 -177q-177 0 -289 101 q-119 104 -119 278zM217 346q0 -96 78 -158q72 -59 174 -59q156 0 317 137l-260 426q-309 -160 -309 -346zM504 1128q0 -92 92 -239q258 147 258 268q0 68 -47 111q-45 41 -115 41q-82 0 -133 -47q-55 -52 -55 -134z" />
<glyph unicode="'" horiz-adv-x="569" d="M290 934v528h139v-528h-139z" />
<glyph unicode="(" horiz-adv-x="530" d="M71 348q0 553 528 1149h144q-498 -598 -498 -1223q0 -368 107 -680h-115q-166 361 -166 754z" />
<glyph unicode=")" horiz-adv-x="530" d="M-239 -406q498 580 498 1221q0 371 -107 682h115q166 -381 166 -756q0 -551 -529 -1147h-143z" />
<glyph unicode="*" horiz-adv-x="720" d="M153 1253l51 95l197 -101l45 215h110l-51 -231l226 22l10 -98l-219 -29l100 -204l-100 -48l-97 211l-159 -178l-76 76l158 172z" />
<glyph unicode="+" horiz-adv-x="1228" d="M98 449v139h446v448h140v-448h446v-139h-446v-449h-140v449h-446z" />
<glyph unicode="," horiz-adv-x="569" d="M-32 -301l20 98q74 10 111 74q19 31 47 129h-115l50 227h227q-76 -327 -82 -340q-74 -174 -258 -188z" />
<glyph unicode="-" horiz-adv-x="796" d="M53 487l33 164h594l-33 -164h-594z" />
<glyph unicode="." horiz-adv-x="569" d="M30 0l49 227h227l-49 -227h-227z" />
<glyph unicode="/" horiz-adv-x="681" d="M-36 -35l606 1532h150l-606 -1532h-150z" />
<glyph unicode="0" d="M51 539q0 309 147 579q181 334 488 334q391 0 391 -549q0 -291 -133 -563q-176 -365 -492 -365q-401 0 -401 564zM235 510q0 -381 236 -381q209 0 332 315q90 228 90 410q0 221 -17 283q-43 161 -204 161q-207 0 -336 -317q-101 -246 -101 -471z" />
<glyph unicode="1" d="M253 1063l29 139q141 0 268 64q137 67 201 186h135l-309 -1452h-185l236 1104q-174 -41 -375 -41z" />
<glyph unicode="2" d="M-12 0q20 274 260 459q70 53 223 143q156 94 226 146q188 147 188 307q0 114 -66 180q-65 63 -178 63q-141 0 -229 -102q-80 -92 -88 -238h-184q24 232 155 361q137 133 367 133q180 0 293 -104q114 -107 114 -283q0 -225 -227 -403q-78 -62 -209 -138l-205 -121 q-190 -122 -237 -249h755l-32 -154h-926z" />
<glyph unicode="3" d="M10 449h185q-13 -320 276 -320q149 0 242 86q94 88 94 234q0 149 -115 202q-78 37 -246 37l31 139q402 -22 402 271q0 200 -246 200q-258 0 -295 -294h-184q28 194 141 313q131 135 348 135q420 0 420 -362q0 -121 -80 -216q-74 -86 -180 -116q188 -84 188 -301 q0 -174 -127 -316q-149 -166 -397 -166q-465 0 -457 474z" />
<glyph unicode="4" d="M-8 340l35 172l860 940h147l-200 -958h192l-30 -154h-193l-74 -340h-174l74 340h-637zM193 494h467l137 657h-4z" />
<glyph unicode="5" d="M14 389h184q0 -260 262 -260q164 0 263 113q90 104 90 268q0 293 -289 293q-178 0 -258 -141h-156l226 765h735l-31 -153h-596l-115 -393l4 -4q105 79 256 79q191 0 304 -127q104 -118 104 -311q0 -254 -164 -405q-157 -138 -383 -138q-200 0 -317 109q-119 109 -119 305 z" />
<glyph unicode="6" d="M59 465q0 323 123 596q168 391 553 391q178 0 278 -100q99 -99 103 -277h-185q-4 223 -225 223q-180 0 -291 -174q-67 -104 -133 -336h4q99 146 318 146q178 0 295 -123q114 -123 114 -303q0 -232 -139 -379q-143 -154 -379 -154q-217 0 -332 142q-104 127 -104 348z M243 422q0 -133 66 -211q69 -82 203 -82q151 0 239 115q78 102 78 256q0 127 -68 202q-71 78 -198 78q-150 0 -238 -106q-82 -99 -82 -252z" />
<glyph unicode="7" d="M198 0q219 698 766 1274h-756l35 153h936l-25 -145q-501 -469 -757 -1282h-199z" />
<glyph unicode="8" d="M45 387q0 162 94 270q92 105 254 134v4q-180 82 -180 268q0 182 133 289q123 100 309 100q168 0 285 -94q123 -103 123 -266q0 -121 -72 -211q-72 -88 -188 -115v-4q205 -86 205 -342q0 -195 -148 -324q-141 -121 -338 -121q-205 0 -334 101q-143 110 -143 311zM229 389 q0 -127 80 -194q74 -66 201 -66q139 0 225 78q88 82 88 219q0 119 -69 190q-72 72 -199 72q-148 0 -234 -76q-92 -80 -92 -223zM397 1057q0 -215 246 -215q104 0 170 65q66 66 66 170q0 221 -232 221q-110 0 -180 -65q-70 -66 -70 -176z" />
<glyph unicode="9" d="M12 346h184q0 -217 211 -217q183 0 299 170q70 104 140 330l-4 4q-97 -144 -320 -144q-178 0 -295 125q-113 121 -113 301q0 228 138 379q143 158 368 158q224 0 338 -135q109 -127 109 -352q0 -310 -121 -588q-90 -203 -201 -293q-131 -109 -336 -109q-188 0 -290 91 q-111 96 -107 280zM299 924q0 -127 67 -203q72 -78 199 -78q150 0 238 107q79 100 79 251q0 297 -280 297q-141 0 -227 -122q-76 -107 -76 -252z" />
<glyph unicode=":" horiz-adv-x="569" d="M30 0l45 227h231l-47 -227h-229zM202 831l47 228h230l-48 -228h-229z" />
<glyph unicode=";" horiz-adv-x="569" d="M-32 -301l20 98q74 10 111 74q19 31 47 129h-115l50 227h227q-76 -327 -82 -340q-74 -174 -258 -188zM204 831l49 228h227l-49 -228h-227z" />
<glyph unicode="&#x3c;" horiz-adv-x="1228" d="M94 455v127l1040 471v-140l-870 -395l870 -395v-139z" />
<glyph unicode="=" horiz-adv-x="1228" d="M98 242v139h1032v-139h-1032zM98 655v140h1032v-140h-1032z" />
<glyph unicode="&#x3e;" horiz-adv-x="1228" d="M94 -16v139l870 395l-870 395v140l1040 -471v-127z" />
<glyph unicode="?" d="M176 999q12 207 150 342q139 138 346 138q170 0 288 -82q136 -94 136 -256q0 -232 -234 -404q-256 -188 -283 -317l-8 -45h-170q29 172 103 264q59 80 213 184q194 129 194 287q0 215 -235 215q-142 0 -230 -94q-84 -90 -96 -232h-174zM297 0l49 227h227l-49 -227h-227z " />
<glyph unicode="@" horiz-adv-x="1638" d="M86 737q0 314 223 537t537 223q289 0 489 -176q207 -182 207 -455q0 -248 -168 -430q-151 -164 -311 -164q-123 0 -131 134h-6q-121 -138 -254 -138q-129 0 -211 94q-82 93 -82 230q0 225 133 397q141 185 348 185q166 0 230 -168l47 129h129l-172 -582q-23 -76 -23 -104 q0 -64 49 -64q94 0 189 154q94 155 94 317q0 234 -170 385q-160 143 -385 143q-260 0 -443 -194q-180 -193 -180 -463q0 -272 189 -463q184 -186 444 -186q315 0 508 248h129q-213 -361 -641 -361q-324 0 -547 223q-221 224 -221 549zM532 606q0 -86 50 -141q49 -57 127 -57 q125 0 225 153q92 141 92 283q0 74 -51 133q-51 57 -115 57q-135 0 -235 -147q-93 -135 -93 -281z" />
<glyph unicode="A" horiz-adv-x="1366" d="M-112 0l881 1462h213l264 -1462h-201l-67 440h-617l-256 -440h-217zM449 604h504l-109 686h-4z" />
<glyph unicode="B" horiz-adv-x="1402" d="M14 0l305 1462h588q407 0 407 -350q0 -127 -73 -225q-80 -107 -205 -127v-4q219 -64 219 -303q0 -205 -151 -330q-146 -123 -367 -123h-723zM235 164h471q355 0 355 289q0 217 -302 217h-417zM374 834h435q311 0 311 278q0 186 -287 186h-360z" />
<glyph unicode="C" horiz-adv-x="1478" d="M77 606q0 369 215 623q225 268 588 268q248 0 397 -127q160 -135 160 -379h-195q0 168 -100 258q-96 84 -262 84q-287 0 -457 -231q-151 -207 -151 -496q0 -221 106 -346q113 -131 326 -131q352 0 452 365h195q-119 -529 -647 -529q-299 0 -463 170q-164 168 -164 471z " />
<glyph unicode="D" horiz-adv-x="1441" d="M14 0l309 1462h512q269 0 412 -149q141 -146 141 -410q0 -411 -225 -657q-223 -246 -588 -246h-561zM239 164h338q293 0 465 227q152 201 152 492q0 415 -404 415h-311z" />
<glyph unicode="E" horiz-adv-x="1251" d="M14 0l309 1462h1008l-33 -164h-813l-98 -464h757l-32 -164h-760l-107 -506h824l-37 -164h-1018z" />
<glyph unicode="F" horiz-adv-x="1175" d="M14 0l305 1462h963l-35 -164h-768l-96 -464h675l-34 -164h-676l-139 -670h-195z" />
<glyph unicode="G" horiz-adv-x="1554" d="M77 606q0 369 215 623q225 268 588 268q258 0 416 -119q172 -129 172 -370h-195q0 159 -117 245q-106 80 -276 80q-287 0 -457 -231q-151 -207 -151 -496q0 -221 106 -346q113 -131 326 -131q407 0 528 477h-467l33 164h637l-160 -770h-123l-12 145q-166 -180 -436 -180 q-299 0 -463 170q-164 168 -164 471z" />
<glyph unicode="H" horiz-adv-x="1478" d="M14 0l307 1462h197l-133 -628h766l131 628h194l-307 -1462h-194l141 670h-766l-141 -670h-195z" />
<glyph unicode="I" horiz-adv-x="530" d="M14 0l307 1462h195l-307 -1462h-195z" />
<glyph unicode="J" horiz-adv-x="1062" d="M-18 276q0 101 18 203h197q-18 -86 -20 -151q0 -199 215 -199q131 0 200 107q45 71 78 225l213 1001h193l-232 -1102q-45 -200 -139 -292q-109 -103 -317 -103q-183 0 -291 80q-115 84 -115 231z" />
<glyph unicode="K" horiz-adv-x="1366" d="M14 0l309 1462h195l-154 -721l4 -4l828 725h260l-705 -602l469 -860h-215l-399 741l-293 -247l-104 -494h-195z" />
<glyph unicode="L" d="M14 0l307 1462h195l-271 -1298h773l-35 -164h-969z" />
<glyph unicode="M" horiz-adv-x="1781" d="M14 0l307 1462h271l194 -1257h4l723 1257h270l-309 -1462h-186l299 1280h-4l-746 -1280h-186l-191 1280h-4l-256 -1280h-186z" />
<glyph unicode="N" horiz-adv-x="1478" d="M14 0l309 1462h209l522 -1210h4l244 1210h189l-310 -1462h-209l-518 1202h-4l-248 -1202h-188z" />
<glyph unicode="O" horiz-adv-x="1554" d="M77 606q0 369 215 623q225 268 588 268q278 0 446 -188q164 -181 164 -459q0 -361 -211 -614q-223 -271 -575 -271q-299 0 -463 170q-164 168 -164 471zM272 606q0 -221 106 -346q113 -131 326 -131q274 0 440 229q152 207 152 492q0 211 -107 344q-113 139 -309 139 q-287 0 -457 -231q-151 -207 -151 -496z" />
<glyph unicode="P" horiz-adv-x="1327" d="M14 0l305 1462h576q434 0 434 -403q0 -172 -117 -299q-151 -162 -442 -162h-434l-127 -598h-195zM370 762h441q153 0 241 84q82 78 82 213q0 239 -239 239h-412z" />
<glyph unicode="Q" horiz-adv-x="1554" d="M77 606q0 369 215 623q225 268 588 268q278 0 446 -188q164 -181 164 -459q0 -455 -311 -715l178 -172l-111 -115l-202 197q-154 -80 -340 -80q-299 0 -463 170q-164 168 -164 471zM272 606q0 -221 106 -346q113 -131 326 -131q116 0 209 43l-134 127l111 117l162 -158 q244 201 244 592q0 211 -107 344q-113 139 -309 139q-287 0 -457 -231q-151 -207 -151 -496z" />
<glyph unicode="R" horiz-adv-x="1402" d="M14 0l309 1462h563q482 0 482 -372q0 -148 -92 -261q-95 -112 -238 -133v-4q154 -48 154 -250q0 -32 -4 -67q-3 -35 -13 -99q-10 -65 -12 -94q-2 -23 -3 -45q0 -80 30 -137h-203q-18 54 -18 127q0 81 22 186q11 62 11 112q0 188 -152 200h-510l-131 -625h-195zM374 788 h439q202 0 295 105q65 76 65 184q0 221 -287 221h-403z" />
<glyph unicode="S" horiz-adv-x="1327" d="M46 479h195q0 -10 -1 -20q0 -330 390 -330q152 0 252 68q115 75 115 213q0 170 -260 241l-199 54q-328 92 -328 368q0 199 170 318q150 106 363 106q233 0 377 -111q153 -118 153 -334v-22h-194v14q0 289 -336 289q-125 0 -221 -55q-117 -68 -117 -184q0 -166 237 -236 l197 -53q164 -45 244 -117q108 -100 108 -278q0 -211 -186 -336q-162 -109 -383 -109q-279 0 -430 123q-148 120 -148 341q0 24 2 50z" />
<glyph unicode="T" horiz-adv-x="1175" d="M122 1298l35 164h1179l-36 -164h-492l-274 -1298h-195l275 1298h-492z" />
<glyph unicode="U" horiz-adv-x="1478" d="M177 602l183 860h194l-192 -909q-18 -77 -18 -139q0 -285 364 -285q221 0 321 125q70 90 125 332l185 876h194l-182 -876q-47 -217 -74 -281q-139 -340 -569 -340q-324 0 -459 166q-92 110 -92 289q0 84 20 182z" />
<glyph unicode="V" horiz-adv-x="1251" d="M161 1462h199l149 -1272h4l695 1272h206l-825 -1462h-219z" />
<glyph unicode="W" horiz-adv-x="1896" d="M163 1462h193l51 -1231h4l561 1231h221l82 -1235h4l533 1235h200l-671 -1462h-203l-92 1262h-4l-578 -1262h-209z" />
<glyph unicode="X" horiz-adv-x="1251" d="M-90 0l635 764l-352 698h209l270 -577l469 577h219l-602 -725l371 -737h-201l-295 618l-500 -618h-223z" />
<glyph unicode="Y" horiz-adv-x="1251" d="M135 1462h207l299 -708l555 708h225l-708 -874l-127 -588h-191l125 588z" />
<glyph unicode="Z" horiz-adv-x="1251" d="M-77 0l35 162l1098 1136h-838l41 164h1067l-35 -166l-1106 -1132h934l-35 -164h-1161z" />
<glyph unicode="[" horiz-adv-x="530" d="M-59 -406l393 1903h387l-28 -133h-222l-335 -1636h221l-29 -134h-387z" />
<glyph unicode="\" horiz-adv-x="681" d="M-36 1497h150l606 -1532h-150z" />
<glyph unicode="]" horiz-adv-x="530" d="M-262 -406l29 134h221l336 1636h-221l28 133h387l-393 -1903h-387z" />
<glyph unicode="^" horiz-adv-x="1228" d="M102 541l446 886h132l446 -886h-143l-371 737l-365 -737h-145z" />
<glyph unicode="_" horiz-adv-x="1024" d="M0 -154h1024v-102h-1024v102z" />
<glyph unicode="`" horiz-adv-x="454" d="M237 1499h207l137 -293h-137z" />
<glyph unicode="a" horiz-adv-x="1062" d="M-20 274q0 203 178 281q98 43 357 68q157 14 202 36q64 33 64 132q0 139 -213 139q-254 0 -285 -191h-174q23 168 158 260q123 84 301 84q387 0 387 -270q0 -61 -33 -192l-68 -289l-28 -152q0 -65 51 -65q16 0 55 14l-26 -129q-45 -25 -107 -25q-139 0 -139 123 q0 13 2 27l-4 4q-115 -154 -354 -154q-324 0 -324 299zM154 276q0 -69 59 -110q52 -37 132 -37q206 0 297 139q36 51 92 273h-4q-424 -305 -536 -305q-41 0 -40 40z" />
<glyph unicode="b" horiz-adv-x="1214" d="M-10 0l309 1462h174l-112 -534l4 -4q127 159 323 159q205 0 314 -127q102 -118 102 -329q0 -265 -145 -449q-158 -203 -414 -203q-139 0 -242 72q-96 64 -114 150h-4l-39 -197h-156zM256 393q0 -123 80 -194q78 -70 209 -70q174 0 287 172q98 150 98 326q0 133 -59 215 q-66 88 -183 88q-209 0 -329 -185q-103 -155 -103 -352z" />
<glyph unicode="c" horiz-adv-x="1099" d="M43 432q0 268 152 453q163 198 434 198q385 0 397 -360h-174q0 98 -59 154q-60 53 -164 53q-189 0 -307 -162q-105 -145 -105 -336q0 -303 262 -303q228 0 309 217h175q-99 -371 -484 -371q-213 0 -325 121q-111 119 -111 336z" />
<glyph unicode="d" horiz-adv-x="1214" d="M34 410q0 258 156 456q170 217 432 217q272 0 330 -186h4l112 565h172l-309 -1462h-164l37 152h-4q-133 -177 -350 -177q-199 0 -310 121q-106 117 -106 314zM208 410q0 -281 272 -281q185 0 306 180q108 160 108 346q0 123 -67 197q-74 78 -199 78q-193 0 -313 -172 q-107 -152 -107 -348z" />
<glyph unicode="e" horiz-adv-x="1099" d="M20 401q0 297 164 494q158 188 381 188q448 0 448 -469q0 -55 -16 -137h-797q-6 -45 -6 -92q0 -117 84 -188q78 -68 191 -68q229 0 305 203h174q-41 -172 -174 -266q-127 -91 -305 -91q-240 0 -357 144q-92 112 -92 282zM225 631h614q1 16 1 31q0 104 -48 174 q-65 94 -201 94q-276 0 -366 -299z" />
<glyph unicode="f" horiz-adv-x="606" d="M47 0l197 905h-181l31 154h180q64 248 88 291q74 129 254 129q93 0 146 -17l-29 -147q-51 10 -82 10q-110 0 -151 -84l-54 -182h203l-29 -154h-204l-195 -905h-174z" />
<glyph unicode="g" horiz-adv-x="1175" d="M-45 -102h174q12 -174 266 -174q178 0 271 133q55 82 108 293l-4 4q-106 -162 -330 -162q-190 0 -297 125q-100 116 -100 313q0 252 148 444q159 209 403 209q119 0 215 -57q96 -61 121 -158v-4h4l33 195h164l-191 -905q-45 -203 -82 -289q-125 -295 -481 -295 q-178 0 -289 76q-129 86 -133 252zM217 430q0 -121 66 -199q69 -86 194 -86q180 0 291 174q94 150 94 334q0 277 -270 277q-168 0 -279 -176q-96 -154 -96 -324z" />
<glyph unicode="h" d="M-10 0l309 1462h174l-125 -559l4 -4q136 184 377 184q295 0 295 -272q0 -70 -30 -207l-130 -604h-174l136 618l24 164q0 148 -184 148q-150 0 -262 -123q-76 -66 -117 -221l-123 -586h-174z" />
<glyph unicode="i" horiz-adv-x="454" d="M-10 0l221 1059h174l-221 -1059h-174zM250 1249l45 213h176l-45 -213h-176z" />
<glyph unicode="j" horiz-adv-x="454" d="M-245 -393l31 153q45 -12 67 -12q54 0 80 43q21 37 47 156l232 1112h174l-266 -1258q-50 -207 -250 -207q-68 0 -115 13zM251 1249l45 213h176l-45 -213h-176z" />
<glyph unicode="k" horiz-adv-x="985" d="M-10 0l309 1462h172l-182 -860l4 -4l533 461h227l-461 -391l262 -668h-194l-207 563l-209 -186l-80 -377h-174z" />
<glyph unicode="l" horiz-adv-x="454" d="M-10 0l307 1462h174l-307 -1462h-174z" />
<glyph unicode="m" horiz-adv-x="1744" d="M-10 0l225 1059h162l-39 -158l4 -4q150 186 369 186q223 0 266 -190q135 190 363 190q125 0 202 -53q93 -63 93 -184q0 -84 -31 -211l-133 -635h-174l147 672q16 65 16 114q0 62 -47 103q-45 41 -114 41q-152 0 -267 -146q-63 -71 -98 -237l-117 -547h-174l127 604 q33 146 33 187q0 139 -147 139q-144 0 -260 -135q-78 -76 -113 -240l-119 -555h-174z" />
<glyph unicode="n" d="M-10 0l223 1059h168l-33 -160h4q136 184 377 184q295 0 295 -272q0 -70 -30 -207l-130 -604h-174l136 618l24 164q0 148 -184 148q-150 0 -262 -123q-76 -66 -117 -221l-123 -586h-174z" />
<glyph unicode="o" horiz-adv-x="1175" d="M34 418q0 272 158 463q166 202 434 202q440 0 440 -438q0 -272 -153 -463q-166 -207 -433 -207q-204 0 -327 125q-119 121 -119 318zM208 420q0 -133 74 -211q78 -80 217 -80q176 0 293 174q100 152 100 328q0 131 -67 211q-74 88 -211 88q-187 0 -304 -172 q-102 -152 -102 -338z" />
<glyph unicode="p" horiz-adv-x="1214" d="M-100 -406l309 1465h164l-37 -152h4q133 176 351 176q198 0 309 -120q106 -117 106 -314q0 -258 -155 -456q-170 -218 -433 -218q-278 0 -329 187h-4l-113 -568h-172zM246 403q0 -122 70 -196q71 -78 196 -78q193 0 314 172q106 152 106 348q0 281 -272 281 q-185 0 -305 -180q-109 -160 -109 -347z" />
<glyph unicode="q" horiz-adv-x="1214" d="M34 434q0 260 147 449q158 200 410 200q266 0 342 -192h4l35 168h176l-309 -1465h-176l114 541h-4q-131 -160 -333 -160q-199 0 -308 131q-98 121 -98 328zM208 434q0 -133 64 -215q71 -90 206 -90q191 0 308 186q96 158 96 355q0 121 -72 190q-71 70 -201 70 q-180 0 -296 -166q-105 -148 -105 -330z" />
<glyph unicode="r" horiz-adv-x="681" d="M-10 0l221 1059h164l-51 -228h4q141 252 385 252h61l-41 -186q-8 2 -26 2h-25q-63 0 -104 -10q-135 -35 -226 -172q-53 -76 -88 -248l-100 -469h-174z" />
<glyph unicode="s" horiz-adv-x="985" d="M-18 334h174q-1 -10 -1 -19q0 -186 271 -186q99 0 164 35q78 43 78 127q0 67 -88 117q-4 0 -190 84q-281 110 -281 286q0 140 123 228q112 77 270 77q166 0 275 -75q125 -88 125 -260h-175v12q0 78 -61 125q-59 45 -158 45q-225 0 -225 -135q0 -64 88 -113 q41 -25 191 -82q135 -59 192 -108q88 -78 88 -189q0 -164 -139 -252q-119 -76 -293 -76q-428 0 -428 359z" />
<glyph unicode="t" horiz-adv-x="645" d="M67 905l33 154h178l65 313h175l-66 -313h211l-33 -154h-211l-131 -622l-6 -70q0 -72 104 -72q41 0 101 19l-31 -160q-61 -12 -123 -12q-237 0 -237 172q0 33 10 88l139 657h-178z" />
<glyph unicode="u" d="M30 248q0 69 31 207l129 604h174l-135 -619q-25 -94 -25 -164q0 -147 184 -147q140 0 248 107q101 96 131 237l123 586h174l-223 -1059h-168l33 160h-4q-135 -185 -377 -185q-295 0 -295 273z" />
<glyph unicode="v" horiz-adv-x="985" d="M86 1059h184l90 -881h5l458 881h189l-588 -1059h-186z" />
<glyph unicode="w" horiz-adv-x="1554" d="M83 1059h184l66 -842h4l381 842h196l52 -842h4l401 842h189l-547 -1059h-185l-53 823h-4l-379 -823h-184z" />
<glyph unicode="x" horiz-adv-x="985" d="M-135 0l496 561l-236 498h201l160 -385l315 385h211l-455 -512l271 -547h-199l-193 434l-360 -434h-211z" />
<glyph unicode="y" horiz-adv-x="985" d="M-129 -403l31 141q47 -29 100 -29q94 0 164 115l106 176l-186 1059h186l123 -842h4l445 842h190l-700 -1239q-84 -131 -137 -176q-84 -74 -205 -74q-68 0 -121 27z" />
<glyph unicode="z" horiz-adv-x="909" d="M-108 0l25 131l737 774h-569l30 154h805l-27 -125l-743 -780h633l-29 -154h-862z" />
<glyph unicode="{" horiz-adv-x="681" d="M61 475l31 139q67 0 131 66q63 70 88 176l78 373q22 123 112 198q80 70 164 70h144l-27 -123h-103q-102 0 -135 -180l-75 -371q-29 -125 -115 -205q-62 -55 -121 -69l-2 -6q45 -6 82 -45q51 -56 51 -152q0 -16 -12 -78l-76 -370q-6 -33 -6 -70q0 -111 67 -111h103 l-27 -123h-143q-68 0 -119 48q-55 51 -55 137q0 43 8 84l78 373q8 40 8 83q0 70 -37 115q-37 41 -92 41z" />
<glyph unicode="|" horiz-adv-x="454" d="M157 -438v2048h139v-2048h-139z" />
<glyph unicode="}" horiz-adv-x="681" d="M-186 -406l27 123h102q102 0 135 181l76 370q25 125 115 205q63 57 120 70l3 6q-46 6 -82 47q-52 53 -52 149q0 17 13 78l75 371q7 35 7 70q0 110 -68 110h-102l26 123h144q67 0 118 -47q56 -51 56 -137q0 -43 -8 -84l-78 -373q-9 -41 -9 -84q0 -72 37 -115t93 -43 l-31 -139q-68 0 -131 -67q-64 -68 -88 -172l-78 -373q-23 -123 -113 -199q-80 -70 -164 -70h-143z" />
<glyph unicode="~" horiz-adv-x="1228" d="M141 469q86 176 256 176q78 0 227 -65q191 -82 209 -82q74 0 180 155l74 -102q-119 -176 -256 -176q-92 0 -209 67q-135 80 -235 80q-101 0 -172 -155z" />
<glyph d="M-12 563l68 121h96l16 117h-137l68 121h98q72 241 229 389q174 164 412 164q190 0 362 -123l-86 -154q-135 115 -284 115q-314 0 -457 -391h666l-70 -121h-631l-18 -117h612l-70 -121h-546q18 -440 381 -440q163 0 378 149l-43 -206q-174 -101 -358 -101q-254 0 -393 176 q-129 160 -133 422h-160z" />
<glyph unicode="&#x20ac;" d="M-12 563l68 121h96l16 117h-137l68 121h98q72 241 229 389q174 164 412 164q190 0 362 -123l-86 -154q-135 115 -284 115q-314 0 -457 -391h666l-70 -121h-631l-18 -117h612l-70 -121h-546q18 -440 381 -440q163 0 378 149l-43 -206q-174 -101 -358 -101q-254 0 -393 176 q-129 160 -133 422h-160z" />
<glyph unicode="&#xa1;" horiz-adv-x="530" d="M-55 -406l96 457l185 631h94l-88 -631l-97 -457h-190zM185 831l49 228h227l-49 -228h-227z" />
<glyph unicode="&#xa2;" d="M63 432q0 262 160 453q168 198 426 198l39 187h80l-41 -191q319 -39 319 -356h-174q0 186 -176 213l-172 -817q209 14 284 227h175q-99 -371 -490 -371l-45 -213h-80l47 220q-352 45 -352 450zM237 432q0 -276 209 -307l172 815q-176 -12 -283 -174q-98 -145 -98 -334z " />
<glyph unicode="&#xa3;" d="M-6 129q256 201 256 377q0 84 -20 164h-177l21 92h127q-47 176 -47 260q0 201 151 340q146 135 344 135q222 0 344 -147q117 -140 105 -357h-184q12 137 -52 240q-69 110 -198 110q-142 0 -234 -96q-92 -98 -92 -246q0 -122 47 -239h316l-21 -92h-266q20 -56 20 -140 q0 -96 -86 -211q-80 -110 -188 -174v-4q106 56 229 56q62 0 172 -33q135 -45 174 -45q60 0 193 94l65 -147q-145 -101 -278 -101q-78 0 -213 49q-143 49 -207 49q-86 0 -242 -88z" />
<glyph unicode="&#xa4;" d="M51 297l113 119q-107 129 -107 299q0 192 111 303l-117 119l100 100l115 -115q127 105 309 105q174 0 293 -103l117 115l102 -104l-112 -113q106 -113 106 -303q0 -182 -106 -307l112 -115l-96 -96l-115 118q-123 -112 -303 -112q-188 0 -311 110l-113 -118zM231 715 q0 -150 101 -252q98 -103 241 -103q142 0 238 107q96 102 96 252q0 145 -94 248q-98 106 -238 106q-145 0 -245 -102q-99 -105 -99 -256z" />
<glyph unicode="&#xa5;" d="M124 356l29 123h295l16 107l-16 47h-267l29 123h199l-226 706h201l207 -704l489 704h222l-510 -706h196l-26 -123h-265l-49 -68l-18 -86h301l-29 -123h-299l-73 -356h-183l74 356h-297z" />
<glyph unicode="&#xa6;" horiz-adv-x="454" d="M157 -182v512h139v-512h-139zM157 842v512h139v-512h-139z" />
<glyph unicode="&#xa7;" d="M14 -18h164q0 -234 225 -234q84 0 137 43q58 45 58 121q0 92 -101 207l-274 297q-129 141 -129 278q0 258 285 322q-46 65 -46 162q0 149 115 239q105 80 258 80q166 0 266 -96q105 -101 93 -264h-164q4 206 -199 206q-80 0 -137 -45t-57 -112q0 -86 96 -191 q264 -268 330 -358q71 -96 71 -197q0 -135 -80 -225t-213 -106q60 -64 60 -183q0 -162 -121 -250q-107 -77 -277 -82q-170 5 -266 113q-94 105 -94 275zM258 719q0 -94 121 -219l143 -154q55 -55 121 -133q198 43 198 205q0 90 -165 256q-216 215 -230 237q-63 0 -127 -63 q-61 -51 -61 -129z" />
<glyph unicode="&#xa8;" horiz-adv-x="454" d="M235 1233l43 213h182l-43 -213h-182zM569 1233l43 213h182l-43 -213h-182z" />
<glyph unicode="&#xa9;" horiz-adv-x="1638" d="M49 735q0 322 229 543q226 219 543 219q318 0 541 -219q227 -221 227 -543q0 -325 -227 -551q-223 -219 -541 -219q-319 0 -543 219q-229 226 -229 551zM188 735q0 -280 183 -469q180 -188 450 -188q266 0 447 188q182 189 182 469q0 275 -182 461q-181 188 -447 188 q-270 0 -450 -188q-183 -186 -183 -461zM391 731q0 209 119 336q123 131 330 131q151 0 253 -80q107 -82 132 -231h-129q-17 88 -84 143q-70 55 -170 55q-148 0 -232 -100q-80 -96 -80 -250q0 -149 84 -252q88 -108 232 -108q102 0 170 59q65 55 80 150h131 q-33 -148 -136 -236q-104 -86 -245 -86q-205 0 -332 133q-123 131 -123 336z" />
<glyph unicode="&#xaa;" horiz-adv-x="636" d="M67 969q0 170 266 194q129 11 178 27q80 27 80 88q0 72 -137 72q-156 0 -178 -109h-123q12 102 102 158q80 53 199 53q92 0 168 -35q92 -41 92 -114l-20 -109l-41 -170q-27 -113 -27 -119q0 -24 35 -24q16 0 31 6l-17 -94q-33 -15 -69 -15q-101 0 -90 94h-7 q-69 -94 -198 -94q-244 0 -244 191zM190 956q0 -75 121 -75q190 10 225 141l25 92h-5q-22 -18 -217 -43q-151 -20 -149 -115z" />
<glyph unicode="&#xab;" horiz-adv-x="948" d="M61 512l45 188l356 205l-43 -174l-245 -139l178 -184l-39 -175zM462 512l45 188l357 205l-43 -174l-246 -139l178 -184l-39 -175z" />
<glyph unicode="&#xac;" horiz-adv-x="1228" d="M98 655v140h1032v-572h-139v432h-893z" />
<glyph unicode="&#xad;" horiz-adv-x="796" d="M53 487l33 164h594l-33 -164h-594z" />
<glyph unicode="&#xae;" horiz-adv-x="1638" d="M49 735q0 322 229 543q226 219 543 219q318 0 541 -219q227 -221 227 -543q0 -325 -227 -551q-223 -219 -541 -219q-319 0 -543 219q-229 226 -229 551zM188 735q0 -280 183 -469q180 -188 450 -188q266 0 447 188q182 189 182 469q0 275 -182 463q-181 186 -447 186 q-270 0 -450 -186q-183 -186 -183 -463zM522 285v895h346q314 0 314 -256q0 -219 -236 -244l256 -395h-149l-244 385h-148v-385h-139zM661 782h146q116 0 164 21q71 33 71 127q0 137 -196 137h-185v-285z" />
<glyph unicode="&#xaf;" horiz-adv-x="454" d="M188 1284l25 113h550l-22 -113h-553z" />
<glyph unicode="&#xb0;" horiz-adv-x="819" d="M157 1149q0 127 88 215t215 88t215 -88t88 -215t-88 -215t-215 -88t-215 88t-88 215zM259 1149q0 -86 58 -143q57 -58 143 -58t143 58q58 57 58 143t-58 143q-57 58 -143 58t-143 -58q-58 -57 -58 -143z" />
<glyph unicode="&#xb1;" horiz-adv-x="1228" d="M98 0v139h1032v-139h-1032zM98 555v139h446v340h140v-340h446v-139h-446v-342h-140v342h-446z" />
<glyph unicode="&#xb2;" horiz-adv-x="681" d="M24 573q0 117 63 195q52 66 191 154l131 82q188 116 188 206q0 129 -147 129q-188 -10 -199 -190h-139q14 141 102 219q93 84 248 84q119 0 195 -63q80 -66 80 -172q0 -173 -219 -291l-129 -74q-201 -113 -211 -166h473l-21 -113h-606z" />
<glyph unicode="&#xb3;" horiz-adv-x="681" d="M44 846h140q-11 -174 170 -174q208 0 208 174q0 90 -69 119q-49 18 -156 12l19 102q254 -22 254 150q0 110 -152 110q-172 0 -182 -159h-140q7 120 95 194q90 78 233 78q125 0 201 -55q84 -60 84 -166q0 -72 -51 -127q-50 -55 -129 -74v-4q133 -45 133 -182 q0 -111 -90 -195q-101 -90 -263 -90q-317 0 -305 287z" />
<glyph unicode="&#xb4;" horiz-adv-x="454" d="M362 1206l190 293h232l-279 -293h-143z" />
<glyph unicode="&#xb5;" d="M-114 -406l305 1465h174l-135 -619q-25 -94 -25 -164q0 -147 185 -147q139 0 248 107q100 96 131 237l123 586h174l-224 -1059h-168l33 160h-4q-135 -185 -352 -185q-137 0 -191 78h-4l-96 -459h-174z" />
<glyph unicode="&#xb6;" horiz-adv-x="1228" d="M174 1069q82 393 547 393h487l-371 -1779h-131l346 1667h-258l-346 -1667h-133l209 1005q-186 0 -287 111q-96 108 -63 270z" />
<glyph unicode="&#xb7;" horiz-adv-x="569" d="M137 518q0 55 41 94q39 37 90 37q55 0 94 -37q37 -39 37 -94q0 -57 -37 -94q-39 -37 -94 -37q-53 0 -92 39t-39 92z" />
<glyph unicode="&#xb8;" horiz-adv-x="454" d="M-247 -385l37 88q92 -31 131 -31q123 0 123 62q0 63 -94 63q-56 0 -86 -16l-39 61l139 158h98l-104 -111h4q18 9 53 9q182 0 182 -150q0 -86 -82 -135q-67 -43 -161 -43q-103 0 -201 45z" />
<glyph unicode="&#xb9;" horiz-adv-x="681" d="M198 1204l18 103q224 0 310 145h96l-184 -879h-136l136 666q-105 -35 -240 -35z" />
<glyph unicode="&#xba;" horiz-adv-x="704" d="M92 1049q0 163 104 278q111 125 285 125q289 0 289 -266q0 -164 -100 -281q-111 -127 -281 -127q-299 0 -297 271zM215 1051q0 -170 174 -170q113 0 188 94q70 86 70 203q0 172 -174 172q-117 0 -193 -101q-65 -86 -65 -198z" />
<glyph unicode="&#xbb;" horiz-adv-x="948" d="M55 233l43 175l246 139l-178 184l39 174l251 -278l-45 -189zM456 233l43 175l246 139l-178 184l39 174l252 -278l-45 -189z" />
<glyph unicode="&#xbc;" horiz-adv-x="1708" d="M161 1204l18 103q224 0 310 145h96l-184 -879h-136l136 666q-105 -35 -240 -35zM253 -57l891 1542h131l-891 -1542h-131zM843 197l23 118l550 564h119l-131 -570h125l-27 -112h-122l-45 -197h-130l46 197h-408zM986 309h285l84 371h-4z" />
<glyph unicode="&#xbd;" horiz-adv-x="1708" d="M161 1204l18 103q224 0 310 145h96l-184 -879h-136l136 666q-105 -35 -240 -35zM253 -57l891 1542h131l-891 -1542h-131zM882 0q0 117 63 195q52 65 191 153l131 82q188 117 188 207q0 129 -147 129q-189 0 -199 -191h-139q14 142 102 220q93 84 248 84q119 0 195 -64 q80 -65 80 -172q0 -172 -220 -291l-129 -73q-200 -113 -211 -166h474l-21 -113h-606z" />
<glyph unicode="&#xbe;" horiz-adv-x="1708" d="M44 846h140q-11 -174 170 -174q208 0 208 174q0 90 -69 119q-49 18 -156 12l19 102q254 -22 254 150q0 110 -152 110q-172 0 -182 -159h-140q7 120 95 194q90 78 233 78q125 0 201 -55q84 -60 84 -166q0 -72 -51 -127q-50 -55 -129 -74v-4q133 -45 133 -182 q0 -111 -90 -195q-101 -90 -263 -90q-317 0 -305 287zM417 -57l891 1542h131l-891 -1542h-131zM931 197l23 118l551 564h118l-131 -570h125l-26 -112h-123l-45 -197h-129l45 197h-408zM1074 309h285l84 371h-4z" />
<glyph unicode="&#xbf;" d="M-38 -66q0 207 225 375q156 113 195 152q92 96 102 219h170q-26 -170 -108 -272q-62 -78 -222 -189q-178 -129 -178 -270q0 -99 64 -162q65 -63 162 -63q280 0 338 327h174q-25 -223 -160 -350q-137 -131 -359 -131q-167 0 -282 96q-121 101 -121 268zM488 831l45 228 h232l-51 -228h-226z" />
<glyph unicode="&#xc0;" horiz-adv-x="1366" d="M-112 0l881 1462h213l264 -1462h-201l-67 440h-617l-256 -440h-217zM449 604h504l-109 686h-4zM636 1888h206l138 -293h-138z" />
<glyph unicode="&#xc1;" horiz-adv-x="1366" d="M-112 0l881 1462h213l264 -1462h-201l-67 440h-617l-256 -440h-217zM449 604h504l-109 686h-4zM775 1595l190 293h232l-279 -293h-143z" />
<glyph unicode="&#xc2;" horiz-adv-x="1366" d="M-112 0l881 1462h213l264 -1462h-201l-67 440h-617l-256 -440h-217zM449 604h504l-109 686h-4zM578 1595l273 293h176l153 -293h-151l-105 191l-178 -191h-168z" />
<glyph unicode="&#xc3;" horiz-adv-x="1366" d="M-112 0l881 1462h213l264 -1462h-201l-67 440h-617l-256 -440h-217zM449 604h504l-109 686h-4zM527 1634q76 224 203 224q51 0 157 -52q107 -47 131 -43q62 0 105 84h104q-69 -223 -209 -223q-47 0 -155 51q-105 47 -133 43q-68 0 -97 -84h-106z" />
<glyph unicode="&#xc4;" horiz-adv-x="1366" d="M-112 0l881 1462h213l264 -1462h-201l-67 440h-617l-256 -440h-217zM449 604h504l-109 686h-4zM652 1622l43 213h182l-43 -213h-182zM986 1622l43 213h182l-43 -213h-182z" />
<glyph unicode="&#xc5;" horiz-adv-x="1366" d="M-112 0l881 1462h213l264 -1462h-201l-67 440h-617l-256 -440h-217zM449 604h504l-109 686h-4zM668 1761q0 94 70 162q68 70 162 70t162 -70q69 -68 69 -162t-69 -162q-68 -69 -162 -69t-162 69q-70 68 -70 162zM760 1761q0 -59 39 -100q41 -39 101 -39q59 0 100 39 q39 41 39 100q0 60 -39 101q-41 39 -100 39q-60 0 -101 -39q-39 -41 -39 -101z" />
<glyph unicode="&#xc6;" horiz-adv-x="1896" d="M-161 0l1065 1462h1073l-35 -164h-719l-96 -464h676l-37 -164h-674l-108 -506h731l-33 -164h-932l88 426h-471l-305 -426h-223zM482 590h393l154 708h-45z" />
<glyph unicode="&#xc7;" horiz-adv-x="1478" d="M77 606q0 369 215 623q225 268 588 268q248 0 397 -127q160 -135 160 -379h-195q0 168 -100 258q-96 84 -262 84q-287 0 -457 -231q-151 -207 -151 -496q0 -221 106 -346q113 -131 326 -131q352 0 452 365h195q-119 -529 -647 -529q-35 0 -54 2l-71 -78h4q18 9 53 9 q182 0 182 -150q0 -86 -82 -135q-67 -43 -161 -43q-103 0 -201 45l37 88q92 -31 131 -31q123 0 123 62q0 63 -94 63q-56 0 -86 -16l-39 61l116 133q-73 15 -125 33q-360 133 -360 598z" />
<glyph unicode="&#xc8;" horiz-adv-x="1251" d="M14 0l309 1462h1008l-33 -164h-813l-98 -464h757l-32 -164h-760l-107 -506h824l-37 -164h-1018zM635 1888h206l138 -293h-138z" />
<glyph unicode="&#xc9;" horiz-adv-x="1251" d="M14 0l309 1462h1008l-33 -164h-813l-98 -464h757l-32 -164h-760l-107 -506h824l-37 -164h-1018zM762 1595l190 293h231l-278 -293h-143z" />
<glyph unicode="&#xca;" horiz-adv-x="1251" d="M14 0l309 1462h1008l-33 -164h-813l-98 -464h757l-32 -164h-760l-107 -506h824l-37 -164h-1018zM532 1595l273 293h176l153 -293h-151l-105 191l-178 -191h-168z" />
<glyph unicode="&#xcb;" horiz-adv-x="1251" d="M14 0l309 1462h1008l-33 -164h-813l-98 -464h757l-32 -164h-760l-107 -506h824l-37 -164h-1018zM581 1622l43 213h183l-43 -213h-183zM915 1622l43 213h182l-43 -213h-182z" />
<glyph unicode="&#xcc;" horiz-adv-x="530" d="M14 0l307 1462h195l-307 -1462h-195zM180 1888h207l137 -293h-137z" />
<glyph unicode="&#xcd;" horiz-adv-x="530" d="M14 0l307 1462h195l-307 -1462h-195zM319 1595l191 293h231l-278 -293h-144z" />
<glyph unicode="&#xce;" horiz-adv-x="530" d="M14 0l307 1462h195l-307 -1462h-195zM139 1595l272 293h176l154 -293h-152l-104 191l-178 -191h-168z" />
<glyph unicode="&#xcf;" horiz-adv-x="530" d="M14 0l307 1462h195l-307 -1462h-195zM190 1622l43 213h182l-43 -213h-182zM524 1622l43 213h182l-43 -213h-182z" />
<glyph unicode="&#xd0;" horiz-adv-x="1441" d="M14 0l147 694h-135l29 140h135l133 628h512q269 0 412 -149q141 -146 141 -410q0 -411 -225 -657q-223 -246 -588 -246h-561zM239 164h338q293 0 465 227q152 201 152 492q0 415 -404 415h-311l-98 -464h409l-28 -140h-410z" />
<glyph unicode="&#xd1;" horiz-adv-x="1478" d="M14 0l309 1462h209l522 -1210h4l244 1210h189l-310 -1462h-209l-518 1202h-4l-248 -1202h-188zM594 1634q75 224 202 224q52 0 158 -52q107 -47 131 -43q62 0 105 84h104q-70 -223 -209 -223q-47 0 -156 51q-104 47 -133 43q-67 0 -96 -84h-106z" />
<glyph unicode="&#xd2;" horiz-adv-x="1554" d="M77 606q0 369 215 623q225 268 588 268q278 0 446 -188q164 -181 164 -459q0 -361 -211 -614q-223 -271 -575 -271q-299 0 -463 170q-164 168 -164 471zM272 606q0 -221 106 -346q113 -131 326 -131q274 0 440 229q152 207 152 492q0 211 -107 344q-113 139 -309 139 q-287 0 -457 -231q-151 -207 -151 -496zM667 1888h207l137 -293h-137z" />
<glyph unicode="&#xd3;" horiz-adv-x="1554" d="M77 606q0 369 215 623q225 268 588 268q278 0 446 -188q164 -181 164 -459q0 -361 -211 -614q-223 -271 -575 -271q-299 0 -463 170q-164 168 -164 471zM272 606q0 -221 106 -346q113 -131 326 -131q274 0 440 229q152 207 152 492q0 211 -107 344q-113 139 -309 139 q-287 0 -457 -231q-151 -207 -151 -496zM804 1595l191 293h231l-279 -293h-143z" />
<glyph unicode="&#xd4;" horiz-adv-x="1554" d="M77 606q0 369 215 623q225 268 588 268q278 0 446 -188q164 -181 164 -459q0 -361 -211 -614q-223 -271 -575 -271q-299 0 -463 170q-164 168 -164 471zM272 606q0 -221 106 -346q113 -131 326 -131q274 0 440 229q152 207 152 492q0 211 -107 344q-113 139 -309 139 q-287 0 -457 -231q-151 -207 -151 -496zM638 1595l273 293h176l153 -293h-151l-105 191l-178 -191h-168z" />
<glyph unicode="&#xd5;" horiz-adv-x="1554" d="M77 606q0 369 215 623q225 268 588 268q278 0 446 -188q164 -181 164 -459q0 -361 -211 -614q-223 -271 -575 -271q-299 0 -463 170q-164 168 -164 471zM272 606q0 -221 106 -346q113 -131 326 -131q274 0 440 229q152 207 152 492q0 211 -107 344q-113 139 -309 139 q-287 0 -457 -231q-151 -207 -151 -496zM605 1634q76 224 203 224q51 0 158 -52q106 -47 131 -43q61 0 104 84h105q-70 -223 -209 -223q-47 0 -156 51q-104 47 -133 43q-67 0 -96 -84h-107z" />
<glyph unicode="&#xd6;" horiz-adv-x="1554" d="M77 606q0 369 215 623q225 268 588 268q278 0 446 -188q164 -181 164 -459q0 -361 -211 -614q-223 -271 -575 -271q-299 0 -463 170q-164 168 -164 471zM272 606q0 -221 106 -346q113 -131 326 -131q274 0 440 229q152 207 152 492q0 211 -107 344q-113 139 -309 139 q-287 0 -457 -231q-151 -207 -151 -496zM669 1622l43 213h182l-43 -213h-182zM1003 1622l43 213h182l-43 -213h-182z" />
<glyph unicode="&#xd7;" horiz-adv-x="1228" d="M145 147l373 373l-371 369l98 98l371 -369l369 369l98 -98l-369 -369l371 -373l-98 -98l-371 373l-373 -373z" />
<glyph unicode="&#xd8;" horiz-adv-x="1554" d="M-24 20l205 197q-103 158 -103 389q0 369 215 623q226 268 588 268q275 0 445 -186l200 190l60 -65l-205 -195q111 -168 111 -391q0 -361 -211 -614q-224 -271 -576 -271q-301 0 -469 180h-6l-195 -190zM273 606q0 -147 51 -252l871 832q-115 147 -314 147 q-287 0 -456 -231q-152 -207 -152 -496zM371 276q115 -147 334 -147q275 0 440 229q152 207 152 492q0 147 -55 258z" />
<glyph unicode="&#xd9;" horiz-adv-x="1478" d="M177 602l183 860h194l-192 -909q-98 -424 346 -424q221 0 321 125q70 90 125 332l185 876h194l-182 -876q-47 -217 -74 -281q-139 -340 -569 -340q-324 0 -459 166q-135 162 -72 471zM671 1888h207l137 -293h-137z" />
<glyph unicode="&#xda;" horiz-adv-x="1478" d="M177 602l183 860h194l-192 -909q-98 -424 346 -424q221 0 321 125q70 90 125 332l185 876h194l-182 -876q-47 -217 -74 -281q-139 -340 -569 -340q-324 0 -459 166q-135 162 -72 471zM872 1595l190 293h232l-279 -293h-143z" />
<glyph unicode="&#xdb;" horiz-adv-x="1478" d="M177 602l183 860h194l-192 -909q-98 -424 346 -424q221 0 321 125q70 90 125 332l185 876h194l-182 -876q-47 -217 -74 -281q-139 -340 -569 -340q-324 0 -459 166q-135 162 -72 471zM663 1595l272 293h176l154 -293h-152l-104 191l-178 -191h-168z" />
<glyph unicode="&#xdc;" horiz-adv-x="1478" d="M177 602l183 860h194l-192 -909q-98 -424 346 -424q221 0 321 125q70 90 125 332l185 876h194l-182 -876q-47 -217 -74 -281q-139 -340 -569 -340q-324 0 -459 166q-135 162 -72 471zM696 1622l43 213h182l-43 -213h-182zM1029 1622l43 213h183l-43 -213h-183z" />
<glyph unicode="&#xdd;" horiz-adv-x="1251" d="M135 1462h207l299 -708l555 708h225l-708 -874l-127 -588h-191l125 588zM735 1595l191 293h231l-279 -293h-143z" />
<glyph unicode="&#xde;" horiz-adv-x="1327" d="M14 0l305 1462h195l-47 -233h376q435 0 435 -404q0 -172 -117 -299q-152 -161 -442 -161h-435l-75 -365h-195zM319 528h440q154 0 242 84q82 78 82 213q0 240 -240 240h-411z" />
<glyph unicode="&#xdf;" horiz-adv-x="1099" d="M-10 0l219 1032q90 465 461 465q164 0 266 -70q117 -81 117 -237q0 -148 -86 -254q-86 -107 -219 -123v-4q110 -16 172 -104q59 -82 59 -197q0 -219 -145 -373q-148 -160 -365 -160q-88 0 -149 11l28 147q21 -4 31 -4h31q170 0 280 94q115 101 115 271q0 145 -98 200 q-76 43 -232 37l31 143q152 -8 256 58q117 76 117 223q0 86 -66 141q-59 47 -135 47q-229 0 -297 -325l-215 -1018h-176z" />
<glyph unicode="&#xe0;" horiz-adv-x="1062" d="M-20 274q0 203 178 281q98 43 357 68q157 14 202 36q64 33 64 132q0 139 -213 139q-254 0 -285 -191h-174q23 168 158 260q123 84 301 84q387 0 387 -270q0 -61 -33 -192l-68 -289l-28 -152q0 -65 51 -65q16 0 55 14l-26 -129q-45 -25 -107 -25q-153 0 -137 150l-4 4 q-115 -154 -354 -154q-324 0 -324 299zM154 276q0 -69 59 -110q52 -37 132 -37q206 0 297 139q36 51 92 273h-4q-578 -416 -576 -265zM424 1499h207l137 -293h-137z" />
<glyph unicode="&#xe1;" horiz-adv-x="1062" d="M-20 274q0 203 178 281q98 43 357 68q157 14 202 36q64 33 64 132q0 139 -213 139q-254 0 -285 -191h-174q23 168 158 260q123 84 301 84q387 0 387 -270q0 -61 -33 -192l-68 -289l-28 -152q0 -65 51 -65q16 0 55 14l-26 -129q-45 -25 -107 -25q-153 0 -137 150l-4 4 q-115 -154 -354 -154q-324 0 -324 299zM154 276q0 -69 59 -110q52 -37 132 -37q206 0 297 139q36 51 92 273h-4q-578 -416 -576 -265zM555 1206l191 293h231l-278 -293h-144z" />
<glyph unicode="&#xe2;" horiz-adv-x="1062" d="M-20 274q0 203 178 281q98 43 357 68q157 14 202 36q64 33 64 132q0 139 -213 139q-254 0 -285 -191h-174q23 168 158 260q123 84 301 84q387 0 387 -270q0 -61 -33 -192l-68 -289l-28 -152q0 -65 51 -65q16 0 55 14l-26 -129q-45 -25 -107 -25q-153 0 -137 150l-4 4 q-115 -154 -354 -154q-324 0 -324 299zM154 276q0 -69 59 -110q52 -37 132 -37q206 0 297 139q36 51 92 273h-4q-578 -416 -576 -265zM306 1206l272 293h176l154 -293h-152l-104 191l-178 -191h-168z" />
<glyph unicode="&#xe3;" horiz-adv-x="1062" d="M-20 274q0 203 178 281q98 43 357 68q157 14 202 36q64 33 64 132q0 139 -213 139q-254 0 -285 -191h-174q23 168 158 260q123 84 301 84q387 0 387 -270q0 -61 -33 -192l-68 -289l-28 -152q0 -65 51 -65q16 0 55 14l-26 -129q-45 -25 -107 -25q-153 0 -137 150l-4 4 q-115 -154 -354 -154q-324 0 -324 299zM154 276q0 -69 59 -110q52 -37 132 -37q206 0 297 139q36 51 92 273h-4q-578 -416 -576 -265zM275 1245q76 223 203 223q51 0 157 -51q107 -47 131 -43q62 0 105 84h104q-69 -223 -209 -223q-47 0 -155 51q-105 47 -133 43 q-68 0 -97 -84h-106z" />
<glyph unicode="&#xe4;" horiz-adv-x="1062" d="M-20 274q0 203 178 281q98 43 357 68q157 14 202 36q64 33 64 132q0 139 -213 139q-254 0 -285 -191h-174q23 168 158 260q123 84 301 84q387 0 387 -270q0 -61 -33 -192l-68 -289l-28 -152q0 -65 51 -65q16 0 55 14l-26 -129q-45 -25 -107 -25q-153 0 -137 150l-4 4 q-115 -154 -354 -154q-324 0 -324 299zM154 276q0 -69 59 -110q52 -37 132 -37q206 0 297 139q36 51 92 273h-4q-578 -416 -576 -265zM361 1233l43 213h182l-43 -213h-182zM695 1233l43 213h182l-43 -213h-182z" />
<glyph unicode="&#xe5;" horiz-adv-x="1062" d="M-20 274q0 203 178 281q98 43 357 68q157 14 202 36q64 33 64 132q0 139 -213 139q-254 0 -285 -191h-174q23 168 158 260q123 84 301 84q387 0 387 -270q0 -61 -33 -192l-68 -289l-28 -152q0 -65 51 -65q16 0 55 14l-26 -129q-45 -25 -107 -25q-153 0 -137 150l-4 4 q-115 -154 -354 -154q-324 0 -324 299zM154 276q0 -69 59 -110q52 -37 132 -37q206 0 297 139q36 51 92 273h-4q-578 -416 -576 -265zM418 1380q0 95 70 162q67 70 162 70q94 0 161 -70q70 -67 70 -162q0 -94 -70 -161q-67 -70 -161 -70q-95 0 -162 70q-70 67 -70 161z M510 1380q0 -59 39 -100q41 -39 101 -39q59 0 100 39q39 41 39 100q0 60 -39 101q-41 39 -100 39q-60 0 -101 -39q-39 -41 -39 -101z" />
<glyph unicode="&#xe6;" horiz-adv-x="1781" d="M-10 270q0 279 403 324q228 24 277 41q125 41 125 153q0 142 -232 142q-215 0 -262 -189h-170q54 342 473 342q256 0 338 -165q119 165 338 165q408 0 408 -415q0 -80 -29 -191h-768q-10 -55 -10 -106q0 -103 61 -168q70 -74 193 -74q227 0 313 203h178q-22 -64 -57 -119 q-158 -238 -449 -238q-296 0 -372 230q-135 -230 -416 -230q-342 0 -342 295zM164 270q0 -141 197 -141q164 0 256 92q88 88 125 324q-11 -6 -367 -78q-211 -43 -211 -197zM920 631h594q18 125 -39 209q-66 90 -203 90q-135 0 -233 -90q-88 -82 -119 -209z" />
<glyph unicode="&#xe7;" horiz-adv-x="1099" d="M43 432q0 268 152 453q163 198 434 198q385 0 397 -360h-174q0 98 -59 154q-60 53 -164 53q-189 0 -307 -162q-105 -145 -105 -336q0 -303 262 -303q228 0 309 217h175q-99 -371 -484 -371h-30l-82 -86h4q18 9 53 9q182 0 182 -150q0 -86 -82 -135q-67 -43 -162 -43 q-102 0 -200 45l37 88q92 -31 131 -31q123 0 123 62q0 63 -95 63q-55 0 -86 -16l-39 61l127 144q-131 24 -208 110q-109 121 -109 336z" />
<glyph unicode="&#xe8;" horiz-adv-x="1099" d="M20 401q0 297 164 494q158 188 381 188q448 0 448 -469q0 -55 -16 -137h-797q-6 -45 -6 -92q0 -117 84 -188q78 -68 191 -68q229 0 305 203h174q-41 -172 -174 -266q-127 -91 -305 -91q-240 0 -357 144q-92 112 -92 282zM225 631h614q8 125 -47 205q-65 94 -201 94 q-276 0 -366 -299zM376 1499h207l137 -293h-137z" />
<glyph unicode="&#xe9;" horiz-adv-x="1099" d="M20 401q0 297 164 494q158 188 381 188q448 0 448 -469q0 -55 -16 -137h-797q-6 -45 -6 -92q0 -117 84 -188q78 -68 191 -68q229 0 305 203h174q-41 -172 -174 -266q-127 -91 -305 -91q-240 0 -357 144q-92 112 -92 282zM225 631h614q8 125 -47 205q-65 94 -201 94 q-276 0 -366 -299zM557 1206l190 293h231l-278 -293h-143z" />
<glyph unicode="&#xea;" horiz-adv-x="1099" d="M20 401q0 297 164 494q158 188 381 188q448 0 448 -469q0 -55 -16 -137h-797q-6 -45 -6 -92q0 -117 84 -188q78 -68 191 -68q229 0 305 203h174q-41 -172 -174 -266q-127 -91 -305 -91q-240 0 -357 144q-92 112 -92 282zM225 631h614q8 125 -47 205q-65 94 -201 94 q-276 0 -366 -299zM311 1206l272 293h176l154 -293h-152l-104 191l-178 -191h-168z" />
<glyph unicode="&#xeb;" horiz-adv-x="1099" d="M20 401q0 297 164 494q158 188 381 188q448 0 448 -469q0 -55 -16 -137h-797q-6 -45 -6 -92q0 -117 84 -188q78 -68 191 -68q229 0 305 203h174q-41 -172 -174 -266q-127 -91 -305 -91q-240 0 -357 144q-92 112 -92 282zM225 631h614q8 125 -47 205q-65 94 -201 94 q-276 0 -366 -299zM376 1233l43 213h183l-43 -213h-183zM710 1233l43 213h182l-43 -213h-182z" />
<glyph unicode="&#xec;" horiz-adv-x="454" d="M-10 0l221 1059h174l-221 -1059h-174zM41 1499h207l137 -293h-137z" />
<glyph unicode="&#xed;" horiz-adv-x="454" d="M-10 0l221 1059h174l-221 -1059h-174zM213 1206l191 293h231l-278 -293h-144z" />
<glyph unicode="&#xee;" horiz-adv-x="454" d="M-10 0l221 1059h174l-221 -1059h-174zM15 1206l272 293h176l154 -293h-152l-104 191l-178 -191h-168z" />
<glyph unicode="&#xef;" horiz-adv-x="454" d="M-10 0l221 1059h174l-221 -1059h-174zM74 1233l43 213h182l-43 -213h-182zM408 1233l43 213h182l-43 -213h-182z" />
<glyph unicode="&#xf0;" horiz-adv-x="1175" d="M34 408q0 258 158 438q166 190 434 190q166 0 264 -108h4q-61 200 -223 311l-234 -117l-86 82l232 115q-53 41 -121 86l131 92q96 -61 141 -102l215 108l91 -78l-222 -112q265 -254 265 -613q0 -315 -152 -512q-162 -213 -451 -213q-204 0 -327 125q-119 119 -119 308z M208 410q0 -127 74 -201q78 -80 217 -80q176 0 295 168q104 147 104 315q0 121 -71 195q-76 76 -213 76q-187 0 -304 -162q-102 -139 -102 -311z" />
<glyph unicode="&#xf1;" d="M-10 0l223 1059h168l-33 -160h4q136 184 377 184q295 0 295 -272q0 -70 -30 -207l-130 -604h-174l136 618l24 164q0 148 -184 148q-150 0 -262 -123q-76 -66 -117 -221l-123 -586h-174zM348 1245q76 223 203 223q51 0 158 -51q106 -47 131 -43q61 0 104 84h105 q-70 -223 -209 -223q-47 0 -156 51q-104 47 -133 43q-67 0 -96 -84h-107z" />
<glyph unicode="&#xf2;" horiz-adv-x="1175" d="M34 418q0 272 158 463q166 202 434 202q440 0 440 -438q0 -272 -153 -463q-166 -207 -433 -207q-204 0 -327 125q-119 121 -119 318zM208 420q0 -133 74 -211q78 -80 217 -80q176 0 293 174q100 152 100 328q0 131 -67 211q-74 88 -211 88q-187 0 -304 -172 q-102 -152 -102 -338zM417 1499h207l137 -293h-137z" />
<glyph unicode="&#xf3;" horiz-adv-x="1175" d="M34 418q0 272 158 463q166 202 434 202q440 0 440 -438q0 -272 -153 -463q-166 -207 -433 -207q-204 0 -327 125q-119 121 -119 318zM208 420q0 -133 74 -211q78 -80 217 -80q176 0 293 174q100 152 100 328q0 131 -67 211q-74 88 -211 88q-187 0 -304 -172 q-102 -152 -102 -338zM599 1206l191 293h231l-278 -293h-144z" />
<glyph unicode="&#xf4;" horiz-adv-x="1175" d="M34 418q0 272 158 463q166 202 434 202q440 0 440 -438q0 -272 -153 -463q-166 -207 -433 -207q-204 0 -327 125q-119 121 -119 318zM208 420q0 -133 74 -211q78 -80 217 -80q176 0 293 174q100 152 100 328q0 131 -67 211q-74 88 -211 88q-187 0 -304 -172 q-102 -152 -102 -338zM378 1206l272 293h177l153 -293h-151l-105 191l-178 -191h-168z" />
<glyph unicode="&#xf5;" horiz-adv-x="1175" d="M34 418q0 272 158 463q166 202 434 202q440 0 440 -438q0 -272 -153 -463q-166 -207 -433 -207q-204 0 -327 125q-119 121 -119 318zM208 420q0 -133 74 -211q78 -80 217 -80q176 0 293 174q100 152 100 328q0 131 -67 211q-74 88 -211 88q-187 0 -304 -172 q-102 -152 -102 -338zM364 1245q76 223 202 223q52 0 158 -51q107 -47 131 -43q62 0 105 84h104q-69 -223 -209 -223q-47 0 -155 51q-105 47 -134 43q-67 0 -96 -84h-106z" />
<glyph unicode="&#xf6;" horiz-adv-x="1175" d="M34 418q0 272 158 463q166 202 434 202q440 0 440 -438q0 -272 -153 -463q-166 -207 -433 -207q-204 0 -327 125q-119 121 -119 318zM208 420q0 -133 74 -211q78 -80 217 -80q176 0 293 174q100 152 100 328q0 131 -67 211q-74 88 -211 88q-187 0 -304 -172 q-102 -152 -102 -338zM417 1233l43 213h182l-43 -213h-182zM751 1233l43 213h182l-43 -213h-182z" />
<glyph unicode="&#xf7;" horiz-adv-x="1228" d="M98 449v139h1032v-139h-1032zM483 96q0 54 39 92q39 39 92 39t92 -39q39 -38 39 -92q0 -49 -39 -90t-90 -41q-53 0 -94 39q-39 39 -39 92zM483 940q0 53 39 92t92 39t92 -39t39 -92q0 -49 -39 -90t-90 -41q-53 0 -94 39q-39 39 -39 92z" />
<glyph unicode="&#xf8;" horiz-adv-x="1175" d="M-61 27l158 143q-62 102 -62 248q0 272 158 463q166 202 434 202q227 0 338 -129l143 129l52 -57l-150 -135q57 -96 57 -246q0 -272 -153 -463q-166 -207 -432 -207q-226 0 -340 134l-154 -140zM209 420q0 -80 21 -129l606 547q-78 92 -221 92q-187 0 -303 -172 q-103 -152 -103 -338zM267 221q78 -92 233 -92q176 0 293 174q100 152 100 328q0 74 -22 135z" />
<glyph unicode="&#xf9;" d="M30 248q0 69 31 207l129 604h174l-135 -619q-25 -94 -25 -164q0 -147 184 -147q140 0 248 107q101 96 131 237l123 586h174l-223 -1059h-168l33 160h-4q-135 -185 -377 -185q-295 0 -295 273zM378 1499h207l137 -293h-137z" />
<glyph unicode="&#xfa;" d="M30 248q0 69 31 207l129 604h174l-135 -619q-25 -94 -25 -164q0 -147 184 -147q140 0 248 107q101 96 131 237l123 586h174l-223 -1059h-168l33 160h-4q-135 -185 -377 -185q-295 0 -295 273zM562 1206l191 293h231l-278 -293h-144z" />
<glyph unicode="&#xfb;" d="M30 248q0 69 31 207l129 604h174l-135 -619q-25 -94 -25 -164q0 -147 184 -147q140 0 248 107q101 96 131 237l123 586h174l-223 -1059h-168l33 160h-4q-135 -185 -377 -185q-295 0 -295 273zM345 1206l273 293h176l154 -293h-152l-104 191l-179 -191h-168z" />
<glyph unicode="&#xfc;" d="M30 248q0 69 31 207l129 604h174l-135 -619q-25 -94 -25 -164q0 -147 184 -147q140 0 248 107q101 96 131 237l123 586h174l-223 -1059h-168l33 160h-4q-135 -185 -377 -185q-295 0 -295 273zM382 1233l43 213h183l-43 -213h-183zM716 1233l43 213h182l-43 -213h-182z " />
<glyph unicode="&#xfd;" horiz-adv-x="985" d="M-129 -403l31 141q47 -29 100 -29q94 0 164 115l106 176l-186 1059h186l123 -842h4l445 842h190l-700 -1239q-84 -131 -137 -176q-84 -74 -205 -74q-68 0 -121 27zM520 1206l191 293h231l-278 -293h-144z" />
<glyph unicode="&#xfe;" horiz-adv-x="1214" d="M-100 -406l391 1868h174l-129 -555h4q133 176 351 176q198 0 309 -120q106 -117 106 -314q0 -258 -155 -456q-170 -218 -433 -218q-278 0 -329 187h-4l-113 -568h-172zM246 403q0 -122 70 -196q71 -78 196 -78q193 0 314 172q106 152 106 348q0 281 -272 281 q-185 0 -305 -180q-109 -160 -109 -347z" />
<glyph unicode="&#xff;" horiz-adv-x="985" d="M-129 -403l31 141q47 -29 100 -29q94 0 164 115l106 176l-186 1059h186l123 -842h4l445 842h190l-700 -1239q-84 -131 -137 -176q-84 -74 -205 -74q-68 0 -121 27zM328 1233l43 213h182l-43 -213h-182zM662 1233l43 213h182l-43 -213h-182z" />
<glyph unicode="&#x152;" horiz-adv-x="2199" d="M86 614q0 347 207 605q223 278 563 278q299 0 422 -199l33 164h954l-33 -164h-776l-98 -464h710l-32 -164h-711l-106 -506h786l-33 -164h-973l27 117h-4q-119 -152 -361 -152q-276 0 -432 191q-143 174 -143 458zM281 598q0 -192 96 -324q108 -145 295 -145 q186 0 307 119q82 80 123 278l114 568q17 86 -106 166q-115 73 -236 73q-276 0 -444 -235q-149 -211 -149 -500z" />
<glyph unicode="&#x153;" horiz-adv-x="1857" d="M34 391q0 268 158 471q170 221 432 221q280 0 356 -206q111 206 389 206q203 0 310 -114q100 -109 100 -305q0 -82 -23 -187h-776q-14 -57 -14 -108q0 -240 268 -240q223 0 303 205h178q-118 -359 -512 -359q-282 0 -366 209q-119 -209 -377 -209q-426 0 -426 416z M208 399q0 -116 66 -190q71 -80 196 -80q195 0 299 207q84 162 84 371q0 106 -69 167q-68 56 -177 56q-180 0 -297 -182q-102 -160 -102 -349zM1007 631h594q4 45 4 59q0 101 -58 166q-65 74 -182 74q-141 0 -237 -86q-93 -82 -121 -213z" />
<glyph unicode="&#x178;" horiz-adv-x="1251" d="M135 1462h207l299 -708l555 708h225l-708 -874l-127 -588h-191l125 588zM536 1622l43 213h183l-43 -213h-183zM870 1622l43 213h183l-43 -213h-183z" />
<glyph unicode="&#x2c6;" horiz-adv-x="454" d="M143 1206l272 293h177l153 -293h-151l-105 191l-178 -191h-168z" />
<glyph unicode="&#x2dc;" horiz-adv-x="454" d="M129 1245q76 223 203 223q51 0 157 -51q107 -47 132 -43q61 0 104 84h104q-69 -223 -208 -223q-48 0 -156 51q-105 47 -133 43q-68 0 -97 -84h-106z" />
<glyph unicode="&#x2000;" horiz-adv-x="996" />
<glyph unicode="&#x2001;" horiz-adv-x="1993" />
<glyph unicode="&#x2002;" horiz-adv-x="996" />
<glyph unicode="&#x2003;" horiz-adv-x="1993" />
<glyph unicode="&#x2004;" horiz-adv-x="664" />
<glyph unicode="&#x2005;" horiz-adv-x="498" />
<glyph unicode="&#x2006;" horiz-adv-x="332" />
<glyph unicode="&#x2007;" horiz-adv-x="332" />
<glyph unicode="&#x2008;" horiz-adv-x="249" />
<glyph unicode="&#x2009;" horiz-adv-x="398" />
<glyph unicode="&#x200a;" horiz-adv-x="110" />
<glyph unicode="&#x2010;" horiz-adv-x="796" d="M53 487l33 164h594l-33 -164h-594z" />
<glyph unicode="&#x2011;" horiz-adv-x="796" d="M53 487l33 164h594l-33 -164h-594z" />
<glyph unicode="&#x2012;" horiz-adv-x="796" d="M53 487l33 164h594l-33 -164h-594z" />
<glyph unicode="&#x2013;" horiz-adv-x="1024" d="M-47 487l33 164h1024l-33 -164h-1024z" />
<glyph unicode="&#x2014;" horiz-adv-x="2048" d="M219 487l33 164h1515l-32 -164h-1516z" />
<glyph unicode="&#x2018;" horiz-adv-x="569" d="M227 934q80 332 84 342q72 170 256 186l-21 -98q-112 -16 -157 -203h114l-49 -227h-227z" />
<glyph unicode="&#x2019;" horiz-adv-x="569" d="M219 934l20 98q74 10 111 74q19 31 47 129h-115l50 227h227q-76 -327 -82 -340q-74 -174 -258 -188z" />
<glyph unicode="&#x201a;" horiz-adv-x="569" d="M-67 -301l20 98q74 10 111 74q19 31 47 129h-115l50 227h227q-76 -327 -82 -340q-74 -174 -258 -188z" />
<glyph unicode="&#x201c;" horiz-adv-x="872" d="M182 934q80 332 84 342q72 170 256 186l-21 -98q-112 -16 -157 -203h114l-49 -227h-227zM555 934q80 332 84 342q71 170 256 186l-21 -98q-112 -16 -157 -203h114l-49 -227h-227z" />
<glyph unicode="&#x201d;" horiz-adv-x="872" d="M174 934l20 98q74 10 111 74q19 31 47 129h-115l50 227h227q-76 -327 -82 -340q-74 -174 -258 -188zM547 934l20 98q74 10 111 74q18 31 47 129h-115l49 227h228q-76 -327 -82 -340q-74 -174 -258 -188z" />
<glyph unicode="&#x201e;" horiz-adv-x="872" d="M-73 -301l20 98q74 10 111 74q19 31 47 129h-115l50 227h227q-76 -327 -82 -340q-74 -174 -258 -188zM300 -301l20 98q74 10 111 74q18 31 47 129h-115l49 227h228q-76 -327 -82 -340q-74 -174 -258 -188z" />
<glyph unicode="&#x2022;" horiz-adv-x="1024" d="M147 731q0 152 106 258q107 107 259 107q151 0 260 -107q106 -106 106 -258q0 -151 -106 -260q-109 -106 -260 -106q-152 0 -259 106q-106 109 -106 260z" />
<glyph unicode="&#x2026;" horiz-adv-x="2048" d="M79 0l49 227h227l-49 -227h-227zM761 0l49 227h227l-49 -227h-227zM1443 0l49 227h227l-49 -227h-227z" />
<glyph unicode="&#x202f;" horiz-adv-x="398" />
<glyph unicode="&#x2039;" horiz-adv-x="530" d="M61 512l45 188l356 205l-43 -174l-245 -139l178 -184l-39 -175z" />
<glyph unicode="&#x203a;" horiz-adv-x="530" d="M38 233l43 175l246 139l-178 184l39 174l251 -278l-45 -189z" />
<glyph unicode="&#x205f;" horiz-adv-x="498" />
<glyph unicode="&#x2122;" horiz-adv-x="2027" d="M131 1350v112h668v-112h-265v-732h-139v732h-264zM969 618v844h215l252 -641l247 641h213v-844h-139v705h-4l-276 -705h-89l-276 705h-4v-705h-139z" />
<glyph unicode="&#xe000;" horiz-adv-x="1060" d="M0 1060h1060v-1060h-1060v1060z" />
<glyph unicode="&#xfb01;" horiz-adv-x="1062" d="M47 0l197 905h-181l31 154h180q64 248 88 291q74 129 254 129q93 0 146 -17l-29 -147q-51 10 -82 10q-110 0 -151 -84l-54 -182h203l-29 -154h-204l-195 -905h-174zM598 0l221 1059h174l-221 -1059h-174zM858 1249l45 213h176l-45 -213h-176z" />
<glyph unicode="&#xfb02;" horiz-adv-x="1062" d="M47 0l197 905h-181l31 154h180q64 248 88 291q74 129 254 129q93 0 146 -17l-29 -147q-51 10 -82 10q-110 0 -151 -84l-54 -182h203l-29 -154h-204l-195 -905h-174zM598 0l307 1462h174l-307 -1462h-174z" />
<glyph unicode="&#xfb03;" horiz-adv-x="1666" d="M1202 0l221 1059h174l-221 -1059h-174zM1462 1249l45 213h176l-45 -213h-176zM653 0l197 905h-181l31 154h180q64 248 88 291q74 129 254 129q93 0 146 -17l-29 -147q-51 10 -82 10q-110 0 -151 -84l-54 -182h203l-29 -154h-204l-195 -905h-174zM47 0l197 905h-181 l31 154h180q64 248 88 291q74 129 254 129q93 0 146 -17l-29 -147q-51 10 -82 10q-110 0 -151 -84l-54 -182h203l-29 -154h-204l-195 -905h-174z" />
<glyph unicode="&#xfb04;" horiz-adv-x="1666" d="M1202 0l307 1462h174l-307 -1462h-174zM653 0l197 905h-181l31 154h180q64 248 88 291q74 129 254 129q93 0 146 -17l-29 -147q-51 10 -82 10q-110 0 -151 -84l-54 -182h203l-29 -154h-204l-195 -905h-174zM47 0l197 905h-181l31 154h180q64 248 88 291q74 129 254 129 q93 0 146 -17l-29 -147q-51 10 -82 10q-110 0 -151 -84l-54 -182h203l-29 -154h-204l-195 -905h-174z" />
</font>
</defs>
</svg>
